<svg width="171" height="157" viewBox="0 0 171 157" fill="none" xmlns="http://www.w3.org/2000/svg">
<g filter="url(#filter0_i_1359_277)">
<path fill-rule="evenodd" clip-rule="evenodd" d="M170.07 78.7778C170.07 102.563 158.546 123.864 140.37 138.182L149.388 148.542C152.205 151.777 149.906 156.825 145.617 156.825H88.1538C88.0368 156.825 87.9213 156.821 87.8073 156.814C87.0407 156.833 86.2716 156.842 85.5 156.842C38.7935 156.842 0.930321 121.891 0.930321 78.7778C0.930321 35.664 38.7935 0.71344 85.5 0.71344C132.207 0.71344 170.07 35.664 170.07 78.7778ZM42.1775 54.7378C41.6409 55.1811 41.5825 55.6244 42.0025 56.0678L44.4875 58.7278C44.7442 58.9844 44.9775 59.1011 45.1875 59.0778C45.3975 59.0311 45.6425 58.9028 45.9225 58.6928L51.6975 54.5628L57.6825 58.3428C57.9625 58.5294 58.2192 58.6578 58.4525 58.7278C58.6859 58.7744 58.9075 58.6578 59.1175 58.3778L61.3925 55.4728C61.5792 55.2161 61.6725 54.9828 61.6725 54.7728C61.6725 54.5628 61.5209 54.3528 61.2175 54.1428L55.2325 50.3978C54.9059 50.1878 54.7309 49.8844 54.7075 49.4878C54.6842 49.0678 54.6725 48.6478 54.6725 48.2278V47.1428L59.8175 47.0378C60.3309 47.0144 60.6459 46.9328 60.7625 46.7928C60.9025 46.6294 60.9725 46.2444 60.9725 45.6378V43.1178C60.9725 42.5111 60.9025 42.1261 60.7625 41.9628C60.6459 41.7761 60.3309 41.6944 59.8175 41.7178L54.6725 41.8228V40.7028C54.6725 40.0961 54.5675 39.6878 54.3575 39.4778C54.1709 39.2444 53.8325 39.1278 53.3425 39.1278H50.0525C49.5625 39.1278 49.2125 39.2444 49.0025 39.4778C48.8159 39.6878 48.7225 40.0961 48.7225 40.7028V41.9628L43.5075 42.0678C43.0175 42.0911 42.7025 42.1844 42.5625 42.3478C42.4225 42.4878 42.3525 42.8611 42.3525 43.4678V45.9878C42.3525 46.5944 42.4225 46.9911 42.5625 47.1778C42.7025 47.3411 43.0175 47.4111 43.5075 47.3878L48.7225 47.2828V48.2278C48.7225 48.6478 48.7109 49.0561 48.6875 49.4528C48.6642 49.8494 48.4892 50.1644 48.1625 50.3978L42.1775 54.7378ZM54.6025 73.7428C55.7692 74.0928 57.0759 74.2678 58.5225 74.2678C59.9692 74.2678 61.2759 74.0928 62.4425 73.7428C63.6092 73.4161 64.5892 72.9378 65.3825 72.3078C66.1992 71.7011 66.8175 70.9544 67.2375 70.0678C67.6809 69.2044 67.9025 68.2244 67.9025 67.1278C67.9025 66.0311 67.6809 65.0511 67.2375 64.1878C66.8175 63.3011 66.1992 62.5544 65.3825 61.9478C64.5892 61.3178 63.6092 60.8394 62.4425 60.5128C61.2759 60.1628 59.9692 59.9878 58.5225 59.9878C57.0759 59.9878 55.7692 60.1628 54.6025 60.5128C53.4359 60.8394 52.4442 61.3178 51.6275 61.9478C50.8342 62.5544 50.2159 63.3011 49.7725 64.1878C49.3525 65.0511 49.1425 66.0311 49.1425 67.1278C49.1425 68.2244 49.3525 69.2044 49.7725 70.0678C50.2159 70.9544 50.8342 71.7011 51.6275 72.3078C52.4442 72.9378 53.4359 73.4161 54.6025 73.7428ZM60.7975 52.6728L63.7025 52.6028V57.1528C63.7025 57.7594 63.7959 58.1794 63.9825 58.4128C64.1925 58.6228 64.5425 58.7278 65.0325 58.7278H68.3225C68.8359 58.7278 69.1859 58.6228 69.3725 58.4128C69.5592 58.1794 69.6525 57.7594 69.6525 57.1528V42.9428C69.6525 42.3361 69.5592 41.9278 69.3725 41.7178C69.1859 41.4844 68.8359 41.3678 68.3225 41.3678H65.0325C64.5425 41.3678 64.1925 41.4844 63.9825 41.7178C63.7959 41.9278 63.7025 42.3361 63.7025 42.9428V47.6328L60.7975 47.7028C60.3775 47.7261 60.0742 47.8078 59.8875 47.9478C59.7242 48.0644 59.6425 48.3211 59.6425 48.7178V51.6578C59.6425 52.0544 59.7242 52.3344 59.8875 52.4978C60.0742 52.6378 60.3775 52.6961 60.7975 52.6728ZM61.2175 68.9128C60.6575 69.4261 59.7592 69.6828 58.5225 69.6828C57.2859 69.6828 56.3759 69.4261 55.7925 68.9128C55.2325 68.4228 54.9525 67.8278 54.9525 67.1278C54.9525 66.4278 55.2325 65.8328 55.7925 65.3428C56.3759 64.8294 57.2859 64.5728 58.5225 64.5728C59.7592 64.5728 60.6575 64.8294 61.2175 65.3428C61.8009 65.8328 62.0925 66.4278 62.0925 67.1278C62.0925 67.8278 61.8009 68.4228 61.2175 68.9128ZM76.6134 59.9178L85.5034 54.6328L94.4634 59.6028C94.8834 59.8361 95.2101 59.9761 95.4434 60.0228C95.6768 60.0461 95.9218 59.8478 96.1784 59.4278L98.0334 56.2078C98.2201 55.8811 98.2434 55.6244 98.1034 55.4378C97.9868 55.2278 97.7651 55.0294 97.4384 54.8428L89.6684 50.5728C89.2484 50.3394 88.9451 50.0944 88.7584 49.8378C88.5718 49.5811 88.4784 49.1144 88.4784 48.4378V42.9428C88.4784 42.3361 88.3851 41.9278 88.1984 41.7178C88.0117 41.4844 87.6618 41.3678 87.1484 41.3678H83.7884C83.2984 41.3678 82.9484 41.4844 82.7384 41.7178C82.5518 41.9278 82.4584 42.3361 82.4584 42.9428V48.4378C82.4584 49.1144 82.3534 49.5811 82.1434 49.8378C81.9567 50.0944 81.6651 50.3394 81.2684 50.5728L73.5684 55.1928C73.2418 55.3794 73.0084 55.5778 72.8684 55.7878C72.7518 55.9978 72.7868 56.2544 72.9734 56.5578L74.8634 59.6728C75.1201 60.1161 75.3768 60.3378 75.6334 60.3378C75.8901 60.3144 76.2168 60.1744 76.6134 59.9178ZM74.2334 68.3878C74.4201 68.5278 74.7234 68.5978 75.1434 68.5978L95.8634 68.2478C96.2834 68.2478 96.5751 68.1778 96.7384 68.0378C96.9251 67.8978 97.0184 67.6294 97.0184 67.2328V63.9428C97.0184 63.5461 96.9251 63.2778 96.7384 63.1378C96.5751 62.9978 96.2834 62.9278 95.8634 62.9278L88.4784 63.0678V59.4278C88.4784 58.8211 88.3851 58.4128 88.1984 58.2028C88.0117 57.9694 87.6618 57.8528 87.1484 57.8528H83.8584C83.3684 57.8528 83.0184 57.9694 82.8084 58.2028C82.6217 58.4128 82.5284 58.8211 82.5284 59.4278V63.1728L75.1434 63.2778C74.7234 63.2778 74.4201 63.3478 74.2334 63.4878C74.0701 63.6278 73.9884 63.8961 73.9884 64.2928V67.5828C73.9884 67.9794 74.0701 68.2478 74.2334 68.3878ZM118.747 56.3128L122.492 56.2428V60.3028C122.492 60.9094 122.585 61.3294 122.772 61.5628C122.982 61.7728 123.332 61.8778 123.822 61.8778H127.112C127.625 61.8778 127.975 61.7728 128.162 61.5628C128.348 61.3294 128.442 60.9094 128.442 60.3028V42.9428C128.442 42.3361 128.348 41.9278 128.162 41.7178C127.975 41.4844 127.625 41.3678 127.112 41.3678H123.822C123.332 41.3678 122.982 41.4844 122.772 41.7178C122.585 41.9278 122.492 42.3361 122.492 42.9428V43.5728L118.747 43.6428C118.327 43.6661 118.023 43.7478 117.837 43.8878C117.673 44.0044 117.592 44.2611 117.592 44.6578V47.9478C117.592 48.3444 117.673 48.6244 117.837 48.7878C118.023 48.9278 118.327 48.9861 118.747 48.9628L122.492 48.8928V50.9228L118.747 50.9928C118.327 51.0161 118.023 51.0978 117.837 51.2378C117.673 51.3544 117.592 51.6111 117.592 52.0078V55.2978C117.592 55.6944 117.673 55.9744 117.837 56.1378C118.023 56.2778 118.327 56.3361 118.747 56.3128ZM115.352 54.2128L107.547 54.4578L107.372 42.5928C107.348 41.9861 107.243 41.5778 107.057 41.3678C106.893 41.1344 106.555 41.0178 106.042 41.0178H102.647C102.157 41.0178 101.807 41.1344 101.597 41.3678C101.387 41.5778 101.293 41.9861 101.317 42.5928L101.562 58.3078C101.585 58.9144 101.678 59.3344 101.842 59.5678C102.028 59.8011 102.378 59.9061 102.892 59.8828L115.352 59.5328C115.772 59.5094 116.063 59.4394 116.227 59.3228C116.413 59.1828 116.507 58.9144 116.507 58.5178V55.2278C116.507 54.8311 116.413 54.5628 116.227 54.4228C116.063 54.2594 115.772 54.1894 115.352 54.2128ZM107.127 73.2528C107.313 73.4861 107.663 73.5911 108.177 73.5678L126.552 73.2178C127.018 73.1944 127.322 73.1011 127.462 72.9378C127.625 72.7744 127.707 72.4594 127.707 71.9928V69.1228C127.707 68.6561 127.625 68.3294 127.462 68.1428C127.322 67.9561 127.042 67.8744 126.622 67.8978L112.797 68.1778V63.2428C112.797 62.6361 112.703 62.2278 112.517 62.0178C112.33 61.7844 111.98 61.6678 111.467 61.6678H108.177C107.687 61.6678 107.337 61.7844 107.127 62.0178C106.94 62.2278 106.847 62.6361 106.847 63.2428V71.9928C106.847 72.5994 106.94 73.0194 107.127 73.2528ZM37.2089 94.1278V92.9028L53.5189 92.5528C54.0322 92.5294 54.3472 92.4478 54.4639 92.3078C54.6039 92.1444 54.6739 91.7594 54.6739 91.1528V90.0678C54.6739 89.4611 54.6039 89.0761 54.4639 88.9128C54.3472 88.7494 54.0322 88.6678 53.5189 88.6678L32.5889 89.0178C32.0756 89.0178 31.7139 89.1344 31.5039 89.3678C31.3172 89.5778 31.2356 89.9861 31.2589 90.5928L31.5739 101.828C31.5972 102.364 31.7022 102.761 31.8889 103.018C32.0756 103.274 32.4139 103.403 32.9039 103.403L40.0089 103.298V104.873L32.2739 104.978C31.8539 104.978 31.5506 105.048 31.3639 105.188C31.2006 105.328 31.1189 105.596 31.1189 105.993V108.583C31.1189 108.979 31.2006 109.248 31.3639 109.388C31.5506 109.528 31.8539 109.598 32.2739 109.598L53.6939 109.248C54.1139 109.248 54.4056 109.178 54.5689 109.038C54.7556 108.898 54.8489 108.629 54.8489 108.233V105.643C54.8489 105.246 54.7556 104.978 54.5689 104.838C54.4056 104.698 54.1139 104.628 53.6939 104.628L45.9589 104.768V103.193L53.2389 103.053C53.7289 103.053 54.0439 102.959 54.1839 102.773C54.3239 102.563 54.3939 102.189 54.3939 101.653V100.463C54.3939 99.9261 54.3239 99.5528 54.1839 99.3428C54.0439 99.1328 53.7289 99.0394 53.2389 99.0628L37.2439 99.3778V98.1178L53.1689 97.8378C53.6822 97.8144 53.9972 97.7328 54.1139 97.5928C54.2539 97.4294 54.3239 97.0444 54.3239 96.4378V95.2478C54.3239 94.6411 54.2539 94.2561 54.1139 94.0928C53.9972 93.9061 53.6822 93.8244 53.1689 93.8478L37.2089 94.1278ZM33.3589 116.353L47.9539 116.073L47.8139 119.993C47.7906 120.599 47.8839 121.008 48.0939 121.218C48.3039 121.451 48.6539 121.568 49.1439 121.568H52.4339C52.9472 121.568 53.2856 121.451 53.4489 121.218C53.6356 121.008 53.7406 120.599 53.7639 119.993L54.0789 112.258C54.1022 111.651 54.0206 111.231 53.8339 110.998C53.6472 110.764 53.2856 110.659 52.7489 110.683L33.3589 111.033C32.9389 111.033 32.6356 111.103 32.4489 111.243C32.2856 111.383 32.2039 111.651 32.2039 112.048V115.338C32.2039 115.734 32.2856 116.003 32.4489 116.143C32.6356 116.283 32.9389 116.353 33.3589 116.353ZM59.7771 95.4228H65.7621L66.007 114.253C66.007 114.859 66.1004 115.268 66.287 115.478C66.497 115.711 66.8471 115.828 67.3371 115.828H70.6271C71.1404 115.828 71.4904 115.711 71.677 115.478C71.8637 115.268 71.9571 114.859 71.9571 114.253L71.7121 95.4228H77.9771C78.467 95.4228 78.8287 95.3294 79.062 95.1428C79.2954 94.9561 79.412 94.6178 79.412 94.1278V91.3978C79.412 90.9078 79.2954 90.5694 79.062 90.3828C78.8287 90.1961 78.467 90.1028 77.9771 90.1028H59.7771C59.2871 90.1028 58.9254 90.1961 58.6921 90.3828C58.4587 90.5694 58.3421 90.9078 58.3421 91.3978V94.1278C58.3421 94.6178 58.4587 94.9561 58.6921 95.1428C58.9254 95.3294 59.2871 95.4228 59.7771 95.4228ZM78.1548 114.743C78.2948 114.953 78.5631 115.116 78.9598 115.233L82.2498 116.143C82.9265 116.329 83.3815 116.061 83.6148 115.338L84.8748 111.138H93.4148L94.7098 115.338C94.9431 116.061 95.3981 116.329 96.0748 116.143L99.3648 115.233C99.7615 115.116 100.03 114.953 100.17 114.743C100.31 114.509 100.298 114.148 100.135 113.658L92.8898 91.6778C92.7031 91.0944 92.4815 90.6861 92.2248 90.4528C91.9681 90.2194 91.5598 90.1028 90.9998 90.1028H87.3248C86.7648 90.1028 86.3565 90.2194 86.0998 90.4528C85.8431 90.6861 85.6215 91.0944 85.4348 91.6778L78.1898 113.658C78.0265 114.148 78.0148 114.509 78.1548 114.743ZM86.4848 105.818L89.1448 97.1028L91.8048 105.818H86.4848ZM119.164 110.788C118.931 110.601 118.569 110.508 118.079 110.508H109.434L109.014 91.9228C108.991 91.2461 108.874 90.7794 108.664 90.5228C108.454 90.2428 108.046 90.1028 107.439 90.1028H104.639C104.032 90.1028 103.601 90.2428 103.344 90.5228C103.111 90.7794 103.006 91.2461 103.029 91.9228L103.414 113.973C103.437 114.673 103.554 115.151 103.764 115.408C103.997 115.688 104.417 115.828 105.024 115.828H118.079C118.569 115.828 118.931 115.723 119.164 115.513C119.397 115.326 119.514 114.988 119.514 114.498V111.803C119.514 111.313 119.397 110.974 119.164 110.788ZM123.27 90.4528C123.083 90.6628 122.99 91.0711 122.99 91.6778L123.34 114.253C123.363 114.859 123.468 115.268 123.655 115.478C123.841 115.711 124.18 115.828 124.67 115.828H127.96C128.473 115.828 128.823 115.711 129.01 115.478C129.22 115.268 129.313 114.859 129.29 114.253L129.115 103.648L136.01 115.303C136.243 115.699 136.511 115.921 136.815 115.968C137.118 116.038 137.503 115.979 137.97 115.793L140.735 114.673C141.225 114.463 141.516 114.206 141.61 113.903C141.703 113.599 141.586 113.191 141.26 112.678L134.68 101.723L140.945 93.9528C141.248 93.5794 141.376 93.2528 141.33 92.9728C141.283 92.6694 141.003 92.3194 140.49 91.9228L138.285 90.2078C137.911 89.9744 137.585 89.8811 137.305 89.9278C137.025 89.9744 136.733 90.1728 136.43 90.5228L129.045 99.5528L128.94 91.6778C128.916 91.0711 128.811 90.6628 128.625 90.4528C128.461 90.2194 128.123 90.1028 127.61 90.1028H124.32C123.83 90.1028 123.48 90.2194 123.27 90.4528Z" fill="white"/>
</g>
<defs>
<filter id="filter0_i_1359_277" x="0.930321" y="0.71344" width="169.139" height="158.129" filterUnits="userSpaceOnUse" color-interpolation-filters="sRGB">
<feFlood flood-opacity="0" result="BackgroundImageFix"/>
<feBlend mode="normal" in="SourceGraphic" in2="BackgroundImageFix" result="shape"/>
<feColorMatrix in="SourceAlpha" type="matrix" values="0 0 0 0 0 0 0 0 0 0 0 0 0 0 0 0 0 0 127 0" result="hardAlpha"/>
<feOffset dy="2"/>
<feGaussianBlur stdDeviation="2"/>
<feComposite in2="hardAlpha" operator="arithmetic" k2="-1" k3="1"/>
<feColorMatrix type="matrix" values="0 0 0 0 0 0 0 0 0 0 0 0 0 0 0 0 0 0 0.25 0"/>
<feBlend mode="normal" in2="shape" result="effect1_innerShadow_1359_277"/>
</filter>
</defs>
</svg>
