<svg width="36" height="36" viewBox="0 0 36 36" fill="none" xmlns="http://www.w3.org/2000/svg">
<g clip-path="url(#clip0_7_179)">
<path d="M23.948 19.8111C28.4542 15.7132 32.698 11.8777 32.698 8.58191C32.698 5.88399 30.5834 3.76941 27.8855 3.76941C26.3688 3.76941 24.8959 4.48399 23.948 5.59233C22.9855 4.48399 21.5272 3.76941 20.0105 3.76941C17.3126 3.76941 15.198 5.88399 15.198 8.58191C15.198 11.8777 19.4417 15.7132 23.948 19.8111ZM20.0105 6.68608C20.6522 6.68608 21.3084 6.99233 21.7313 7.48816L23.948 10.0986L26.1647 7.48816C26.5876 6.99233 27.2438 6.68608 27.8855 6.68608C28.9647 6.68608 29.7813 7.50274 29.7813 8.58191C29.7813 10.2152 26.8063 13.2048 23.948 15.859C21.0897 13.2048 18.1147 10.2007 18.1147 8.58191C18.1147 7.50274 18.9313 6.68608 20.0105 6.68608Z" fill="#F57521"/>
<path d="M28.323 24.1861H25.4063C25.4063 22.4361 24.3126 20.8611 22.6792 20.2486L13.6959 16.8944H2.073V32.9361H10.823V30.8361L21.0313 33.6652L32.698 30.0194V28.5611C32.698 26.1402 30.7438 24.1861 28.323 24.1861ZM4.98966 30.0194V19.8111H7.90633V30.0194H4.98966ZM20.9876 30.6173L10.823 27.8027V19.8111H13.1709L21.6584 22.9757C22.1542 23.1652 22.4897 23.6465 22.4897 24.1861C22.4897 24.1861 19.5876 24.1132 19.1355 23.9673L15.6647 22.8152L14.7459 25.5861L18.2167 26.7382C18.9605 26.9861 19.7334 27.1173 20.5209 27.1173H28.323C28.8917 27.1173 29.4022 27.4527 29.6355 27.934L20.9876 30.6173Z" fill="#585856"/>
</g>
<defs>
<clipPath id="clip0_7_179">
<rect width="35" height="35" fill="white" transform="translate(0.614746 0.852722)"/>
</clipPath>
</defs>
</svg>
