<svg width="31" height="23" viewBox="0 0 31 23" fill="none" xmlns="http://www.w3.org/2000/svg">
<path d="M7.51196 12.8876C8.82105 12.9156 10.0347 13.5877 10.8529 14.764C11.8483 16.2063 13.4983 17.0745 15.2574 17.0745C17.0165 17.0745 18.6665 16.2063 19.662 14.75C20.4801 13.5737 21.6938 12.9016 23.0029 12.8736C22.0211 11.1652 18.0938 10.0729 15.2574 10.0729C12.4347 10.0729 8.49378 11.1652 7.51196 12.8876Z" fill="#F57521"/>
<path d="M4.34823 12.8735C6.61187 12.8735 8.43914 10.9971 8.43914 8.67258C8.43914 6.34805 6.61187 4.47162 4.34823 4.47162C2.0846 4.47162 0.257324 6.34805 0.257324 8.67258C0.257324 10.9971 2.0846 12.8735 4.34823 12.8735Z" fill="#585856"/>
<path d="M26.1663 12.8735C28.43 12.8735 30.2573 10.9971 30.2573 8.67258C30.2573 6.34805 28.43 4.47162 26.1663 4.47162C23.9027 4.47162 22.0754 6.34805 22.0754 8.67258C22.0754 10.9971 23.9027 12.8735 26.1663 12.8735Z" fill="#585856"/>
<path d="M15.2574 8.67262C17.521 8.67262 19.3483 6.79619 19.3483 4.47165C19.3483 2.14712 17.521 0.270691 15.2574 0.270691C12.9938 0.270691 11.1665 2.14712 11.1665 4.47165C11.1665 6.79619 12.9938 8.67262 15.2574 8.67262Z" fill="#F57521"/>
<path d="M27.5301 14.2739H23.071C22.021 14.2739 21.2301 14.904 20.7801 15.5622C20.7255 15.6462 18.9255 18.4748 15.2573 18.4748C13.3073 18.4748 11.1255 17.5786 9.7346 15.5622C9.20278 14.792 8.37096 14.2739 7.44369 14.2739H2.9846C1.4846 14.2739 0.257324 15.5342 0.257324 17.0745V22.6758H9.80278V19.5111C11.371 20.6313 13.2664 21.2755 15.2573 21.2755C17.2482 21.2755 19.1437 20.6313 20.7119 19.5111V22.6758H30.2573V17.0745C30.2573 15.5342 29.0301 14.2739 27.5301 14.2739Z" fill="#585856"/>
</svg>
