<?xml version="1.0" encoding="UTF-8"?><svg id="_레이어_2" xmlns="http://www.w3.org/2000/svg" viewBox="0 0 88.74 88.78"><defs><style>.cls-1{fill:#333;}</style></defs><g id="_레이어_1-2"><path class="cls-1" d="M75.49,47.74c-4.54-3.46-9.72-5.39-15.42-6.19,11.88-11.28,9.16-27.33,.39-35.31-9.25-8.42-23.26-8.32-32.36,.23-8.69,8.16-11.03,23.99,.6,35.04-.42,.1-.79,.2-1.18,.27C12.33,44.64,2.18,55.42,.17,70.78c-1.51,11.6,7.26,18.13,15.81,18,19.28-.27,38.58-.07,57.87-.1,8.49-.01,15.06-6.63,14.89-15.12-.21-10.73-4.74-19.33-13.25-25.82ZM26.69,23.66c-.01-9.85,7.96-17.82,17.81-17.78,9.75,.03,17.64,8.01,17.62,17.8-.02,9.8-7.91,17.66-17.72,17.66-9.81,0-17.69-7.87-17.71-17.68Zm47.04,59.12c-9.81,.03-19.62,0-29.44,0s-19.16,0-28.74,0c-5.96,0-9.73-3.86-9.59-9.79,.32-13.36,11.29-24.93,24.62-25.54,9.16-.43,18.36-.43,27.52,0,13.66,.62,24.72,12.46,24.76,26.11,.01,5.29-3.81,9.2-9.12,9.22Z"/></g></svg>