<?xml version="1.0" encoding="UTF-8"?><svg id="_레이어_2" xmlns="http://www.w3.org/2000/svg" viewBox="0 0 97.86 130.6"><defs><style>.cls-1{fill:#4d4d4d;}</style></defs><g id="_레이어_1-2"><path class="cls-1" d="M97.86,13.34c0,35.52,0,71.04,0,106.56,0,5.07-1.97,8.42-5.99,9.96-4.41,1.69-8.05,.39-11.29-2.89-8.72-8.82-17.53-17.56-26.31-26.33-3.87-3.87-6.8-3.86-10.68,.01-8.78,8.77-17.58,17.51-26.31,26.33-3.25,3.28-6.89,4.57-11.3,2.88C1.97,128.31,0,124.97,0,119.89,0,102.05,0,84.2,0,66.36S0,31.01,0,13.34C0,4.92,4.89,0,13.25,0,37.04,0,60.83,0,84.62,0c8.35,0,13.23,4.93,13.23,13.34Z"/></g></svg>