<?xml version="1.0" encoding="UTF-8"?><svg id="_레이어_2" xmlns="http://www.w3.org/2000/svg" viewBox="0 0 132.45 132.52"><defs><style>.cls-1{fill:#568a35;}</style></defs><g id="_레이어_1-2"><path class="cls-1" d="M124.11,77.83c-.65,.21-1.33,.35-2,.46q-3.77,.56-3.77,4.29c0,11.3,.01,22.6,0,33.89-.01,10.29-5.74,16.05-15.96,16.05-6.21,0-12.42,.02-18.62,0-3.33-.01-4.68-1.35-4.69-4.72-.03-9.57,0-19.14-.01-28.71,0-5.81-2.31-8.08-8.17-8.09-3.37,0-6.73-.03-10.09,0-4.78,.04-7.29,2.53-7.31,7.37-.04,9.57,0,19.14-.01,28.72,0,4.32-1.14,5.43-5.54,5.43-6.21,0-12.42,.02-18.62,0-8.93-.03-14.96-5.9-15.1-14.82-.1-6.12-.02-12.25-.02-18.37s-.03-12.59,.03-18.88c.01-1.36-.23-1.95-1.8-1.99-5.53-.13-9.6-2.71-11.57-7.93-2.02-5.37-.3-9.86,3.67-13.81C21.94,39.38,39.29,21.98,56.68,4.61c6.17-6.16,13.02-6.15,19.21,.04,17.51,17.5,35.03,34.98,52.5,52.5,6.91,6.94,4.64,17.73-4.28,20.68Z"/></g></svg>