<?xml version="1.0" encoding="UTF-8"?><svg id="_레이어_2" xmlns="http://www.w3.org/2000/svg" viewBox="0 0 128.74 132.47"><defs><style>.cls-1{fill:#4d4d4d;}</style></defs><g id="_레이어_1-2"><g><path class="cls-1" d="M108.16,33.56c-5.51-.09-11.07,1.05-16.6,1.68-6.73,.77-13.45,1.6-20.25,2.42-.09-5.78-.29-11.34-.25-16.9,.08-13.25-10.72-22.2-24.77-20.57-3.14,.36-4.73,1.7-5.54,4.58-3.36,11.87-6.94,23.68-10.3,35.54-.52,1.85-1.38,2.49-3.33,2.68-5.18,.48-10.34,1.16-15.5,1.81C4.11,45.76-.74,51.39,.09,58.41c2.47,21.17,5,42.33,7.6,63.48,.83,6.85,6.88,11.25,14.21,10.49,4.25-.44,8.49-.95,12.72-1.53,3.99-.54,7.34-2.34,9.25-5.69,1.08-1.9,2.08-1.65,3.64-1.06,6.07,2.28,12.38,3.6,18.96,2.89,12.56-1.35,25.11-2.82,37.62-4.48,9.48-1.26,16.69-8.42,17.99-17.34,.55-3.79,1.13-7.58,1.61-11.38,1.62-12.61,3.98-25.15,4.97-37.82,.97-12.47-7.84-22.19-20.5-22.41ZM31.33,123.18c-3.22,.4-6.44,.82-9.67,1.15-3.52,.35-5.26-.92-5.65-4.17-2.5-20.71-4.98-41.41-7.43-62.13-.38-3.24,1.05-4.94,4.51-5.39,4.6-.6,9.23-1.02,13.81-1.71,1.98-.3,2.52,.25,2.72,2.03,1.21,10.8,2.53,21.58,3.82,32.36,1.24,10.36,2.49,20.72,3.72,31.07,.59,4.97-.41,6.14-5.83,6.79ZM120.04,57.72c-2.02,15.8-4.29,31.58-6.57,47.36-.4,2.82-2.05,5.25-4.49,6.99-1.91,1.35-4.29,2.27-6.96,2.63-1.54,.21-3.08,.4-4.65,.6-1.56,.19-3.14,.38-4.77,.57-3.25,.39-6.67,.78-10.41,1.23-5.26,.47-11.76,1.65-18.36,1.97-6.22,.3-11.71-2.07-17.38-3.84-1.04-.32-.94-1.16-1.03-1.91-2.63-21.94-5.25-43.87-7.89-65.8-.11-.9,.07-1.72,.32-2.56,3.39-11.59,6.85-23.17,10.13-34.78,.53-1.91,1.48-2.3,3.29-2.14,3.04,.27,5.76,1.6,7.76,3.61,.25,.25,.49,.52,.71,.79,.23,.27,.44,.55,.64,.85,.4,.58,.75,1.2,1.04,1.86,.58,1.3,.93,2.74,.98,4.26,.25,6.87,.32,13.74,.32,20.61,0,5.29,1.34,6.51,6.95,5.84,2.74-.33,5.49-.63,8.24-.93,2.15-.24,4.31-.47,6.46-.72,6.08-.68,12.16-1.41,18.2-2.39,.64-.1,1.27-.18,1.89-.24,1.92-.17,3.77-.08,5.49,.27,.34,.06,.68,.14,1.01,.23,.99,.26,1.92,.61,2.79,1.06,.31,.16,.62,.33,.91,.51,.72,.45,1.38,.96,1.97,1.55,.07,.07,.15,.15,.23,.23,.84,.88,1.55,1.91,2.09,3.09,.17,.34,.31,.69,.44,1.06,.08,.22,.15,.44,.22,.67,.12,.42,.23,.85,.31,1.3,.36,1.81,.41,3.86,.12,6.17Z"/><path class="cls-1" d="M60.38,13.29c.41,.58,.75,1.2,1.04,1.86-.29-.66-.64-1.28-1.04-1.86Z"/><path class="cls-1" d="M102.02,114.7c2.67-.36,5.05-1.28,6.96-2.63-1.91,1.36-4.29,2.28-6.96,2.64-1.54,.2-3.08,.4-4.65,.59,1.57-.2,3.11-.39,4.65-.6Z"/><path class="cls-1" d="M77.91,44.93c2.15-.24,4.31-.47,6.46-.72-2.15,.24-4.31,.48-6.46,.72Z"/><path class="cls-1" d="M102.57,41.82c-6.04,.98-12.11,1.71-18.2,2.39,6.08-.68,12.16-1.41,18.2-2.4,.64-.1,1.26-.18,1.89-.23-.62,.06-1.25,.14-1.89,.24Z"/></g></g></svg>