<?xml version="1.0" encoding="UTF-8"?><svg id="_레이어_2" xmlns="http://www.w3.org/2000/svg" viewBox="0 0 119.95 119.93"><defs><style>.cls-1{fill:#4d4d4d;}</style></defs><g id="_레이어_1-2"><g><path class="cls-1" d="M83.98,53.82c-.12,1.71-.74,3.19-1.95,4.49-7.3,7.75-14.56,15.56-21.89,23.29-2.67,2.82-5.66,3-8.73,.57-4.33-3.41-8.62-6.87-12.86-10.4-2.94-2.45-3.32-5.98-1.09-8.66,2.2-2.66,5.69-2.88,8.73-.51,2.21,1.72,4.46,3.4,6.51,5.31,1.62,1.5,2.59,1.59,4.19-.2,5.43-6.05,11.07-11.91,16.64-17.84,1.87-1.99,4.18-2.45,6.65-1.52,2.43,.92,3.55,2.9,3.8,5.46Z"/><path class="cls-1" d="M119.88,36.55c-.07-16.61-11.64-29.05-28.24-30.48-1.18-.11-1.68-.31-2-1.62C88.96,1.66,86.52-.13,83.9,0c-2.77,.15-4.94,1.49-5.59,4.26-.42,1.78-1.38,1.75-2.73,1.75-10.37-.03-20.75-.04-31.13,.01-1.55,.01-2.4-.21-2.86-1.99C40.88,1.26,38.61-.03,35.85,.04c-2.66,.07-4.7,1.53-5.41,4.12-.4,1.44-.88,1.82-2.34,1.93C12.28,7.28,.34,19.75,.16,35.68c-.21,18.13-.21,36.27,0,54.4,.19,15.54,11.44,27.89,26.89,29.34,10.89,1.03,21.86,.11,30.65,.33,11.96,0,21.78,.05,31.59-.01,17.45-.11,30.49-13.06,30.59-30.48,.1-17.57,.08-35.14,0-52.72Zm-12.18,54.73c-.12,8.9-7.98,16.2-17.12,16.35-10.18,.18-20.38,.04-30.57,.04v.02c-9.63,0-19.26,.02-28.89,0-11.5-.03-18.93-7.44-18.95-18.93-.02-17.48-.04-34.96,.01-52.45,.03-9.62,6.44-16.92,15.62-18.22,2-.29,2.49,.3,2.34,2.13-.12,1.39-.08,2.81,.03,4.2,.24,3.08,2.66,5.39,5.68,5.52,2.93,.12,5.64-2.13,6.13-5.1,.04-.28,.03-.56,.06-.84,.15-1.94-.85-4.55,.38-5.66,1.45-1.3,4.09-.41,6.21-.42,8.98-.05,17.95,.04,26.93-.07,2-.02,2.63,.56,2.43,2.5-.15,1.39-.12,2.81,.02,4.2,.31,3.14,3.07,5.51,6.13,5.39,3.02-.12,5.43-2.43,5.69-5.51,.09-1.12,.05-2.25,.05-3.36q0-3.36,3.41-2.78c7.73,1.31,14.32,8.21,14.41,16.04,.21,18.98,.25,37.96,0,56.93Z"/><path class="cls-1" d="M83.98,53.82c-.12,1.71-.74,3.19-1.95,4.49-7.3,7.75-14.56,15.56-21.89,23.29-2.67,2.82-5.66,3-8.73,.57-4.33-3.41-8.62-6.87-12.86-10.4-2.94-2.45-3.32-5.98-1.09-8.66,2.2-2.66,5.69-2.88,8.73-.51,2.21,1.72,4.46,3.4,6.51,5.31,1.62,1.5,2.59,1.59,4.19-.2,5.43-6.05,11.07-11.91,16.64-17.84,1.87-1.99,4.18-2.45,6.65-1.52,2.43,.92,3.55,2.9,3.8,5.46Z"/><path class="cls-1" d="M119.88,36.55c-.07-16.61-11.64-29.05-28.24-30.48-1.18-.11-1.68-.31-2-1.62C88.96,1.66,86.52-.13,83.9,0c-2.77,.15-4.94,1.49-5.59,4.26-.42,1.78-1.38,1.75-2.73,1.75-10.37-.03-20.75-.04-31.13,.01-1.55,.01-2.4-.21-2.86-1.99C40.88,1.26,38.61-.03,35.85,.04c-2.66,.07-4.7,1.53-5.41,4.12-.4,1.44-.88,1.82-2.34,1.93C12.28,7.28,.34,19.75,.16,35.68c-.21,18.13-.21,36.27,0,54.4,.19,15.54,11.44,27.89,26.89,29.34,10.89,1.03,21.86,.11,30.65,.33,11.96,0,21.78,.05,31.59-.01,17.45-.11,30.49-13.06,30.59-30.48,.1-17.57,.08-35.14,0-52.72Zm-12.18,54.73c-.12,8.9-7.98,16.2-17.12,16.35-10.18,.18-20.38,.04-30.57,.04v.02c-9.63,0-19.26,.02-28.89,0-11.5-.03-18.93-7.44-18.95-18.93-.02-17.48-.04-34.96,.01-52.45,.03-9.62,6.44-16.92,15.62-18.22,2-.29,2.49,.3,2.34,2.13-.12,1.39-.08,2.81,.03,4.2,.24,3.08,2.66,5.39,5.68,5.52,2.93,.12,5.64-2.13,6.13-5.1,.04-.28,.03-.56,.06-.84,.15-1.94-.85-4.55,.38-5.66,1.45-1.3,4.09-.41,6.21-.42,8.98-.05,17.95,.04,26.93-.07,2-.02,2.63,.56,2.43,2.5-.15,1.39-.12,2.81,.02,4.2,.31,3.14,3.07,5.51,6.13,5.39,3.02-.12,5.43-2.43,5.69-5.51,.09-1.12,.05-2.25,.05-3.36q0-3.36,3.41-2.78c7.73,1.31,14.32,8.21,14.41,16.04,.21,18.98,.25,37.96,0,56.93Z"/><path class="cls-1" d="M83.98,53.82c-.12,1.71-.74,3.19-1.95,4.49-7.3,7.75-14.56,15.56-21.89,23.29-2.67,2.82-5.66,3-8.73,.57-4.33-3.41-8.62-6.87-12.86-10.4-2.94-2.45-3.32-5.98-1.09-8.66,2.2-2.66,5.69-2.88,8.73-.51,2.21,1.72,4.46,3.4,6.51,5.31,1.62,1.5,2.59,1.59,4.19-.2,5.43-6.05,11.07-11.91,16.64-17.84,1.87-1.99,4.18-2.45,6.65-1.52,2.43,.92,3.55,2.9,3.8,5.46Z"/><path class="cls-1" d="M83.98,53.82c-.12,1.71-.74,3.19-1.95,4.49-7.3,7.75-14.56,15.56-21.89,23.29-2.67,2.82-5.66,3-8.73,.57-4.33-3.41-8.62-6.87-12.86-10.4-2.94-2.45-3.32-5.98-1.09-8.66,2.2-2.66,5.69-2.88,8.73-.51,2.21,1.72,4.46,3.4,6.51,5.31,1.62,1.5,2.59,1.59,4.19-.2,5.43-6.05,11.07-11.91,16.64-17.84,1.87-1.99,4.18-2.45,6.65-1.52,2.43,.92,3.55,2.9,3.8,5.46Z"/></g></g></svg>