<?xml version="1.0" encoding="UTF-8"?><svg id="_레이어_2" xmlns="http://www.w3.org/2000/svg" viewBox="0 0 156.33 116.45"><defs><style>.cls-1{fill:#333;}.cls-2{fill:#568a35;}</style></defs><g id="_레이어_1-2"><path class="cls-1" d="M132.14,11.37c-13.21-14.31-35.46-15.17-51.09-2.29-1.5,1.23-2.27,1.49-3.94,.09C69.98,3.16,61.68,.12,56.16,.09c-21.27,.02-35.54,11.47-39.22,28.54-2.46,11.43,.53,21.86,6.35,31.67,5.4,9.09,12.61,16.68,20.04,24.1,10.62,10.59,22.42,19.89,32.84,30.69,1.81,1.88,3.9,1.77,5.83-.08,3.49-3.34,6.85-6.82,10.43-10.06,10.27-9.28,20.72-18.36,30.08-28.59,6.89-7.51,13.18-15.48,16.66-25.21,5.2-14.54,3.68-28.16-7.04-39.77Zm-.76,39.31c-3.05,7.17-7.75,13.24-12.9,18.99-10.01,11.2-21.39,20.97-32.52,31-2.01,1.81-3.92,3.72-5.81,5.65-.77,.79-1.25,.98-2.14,.08-9.54-9.58-20.11-18.04-29.68-27.59-6.27-6.25-12.37-12.65-17.25-20.08-3.77-5.73-6.46-11.87-7.28-18.78C21.72,22.42,34.85,7.51,54.55,7.58c6.75,.21,14.29,3.47,20.46,9.79,3.47,3.55,4.62,3.58,8.14-.09,14.17-14.83,38.4-12.32,47.79,5.03,5.04,9.32,4.49,18.87,.45,28.38Z"/><path class="cls-2" d="M156.33,61.59c-.08,2.47-1.53,3.79-3.98,4-.14,0-.29,.06-.42,.03-2.7-.64-5.02-.53-7.1,.08l-14.31-.03s.02-.02,.03-.03c-8.41,0-15.4-.34-22.34,.11-5.14,.33-7.64-1.64-9.11-6.4-1.64-5.34-3.97-10.47-6.28-16.39-4.75,13.76-9.23,26.69-13.66,39.63-.79,2.32-1.46,4.62-4.5,4.75-3.05,.13-3.9-2.2-4.92-4.38-4.3-9.15-8.6-18.3-13.11-27.9-.91,1.69-1.74,2.84-2.19,4.14-1.78,5.07-5.07,7.13-10.55,6.53-4.48-.49-9.07-.09-14.41-.09l.02,.02-12.92,.03c-.39-.04-.78-.05-1.2-.05-1.54,.02-3.08,0-4.62,0-2.63,0-4.43-1.26-4.61-3.87-.19-2.62,1.46-4.1,4.02-4.48,.82-.13,1.65-.14,2.97-.24l11.34-.02h.02c1.19,.19,2.79,.19,5.01,.19,.84,0,1.68,.02,2.52,0,4.6-.08,10.09,1.33,13.57-.69,3.28-1.9,4.5-7.41,6.56-11.37,1-1.92,2.06-3.84,4.49-3.88,2.65-.05,3.74,1.93,4.73,4.07,3.98,8.61,8.06,17.17,12.42,26.44,.56-1.32,.81-1.79,.98-2.3,4.46-12.93,8.93-25.85,13.33-38.8,.77-2.28,1.68-4.19,4.46-4.23,2.8-.04,3.75,1.98,4.59,4.14,2.94,7.69,5.99,15.34,8.78,23.08,.93,2.57,2.07,3.73,5.06,3.63,6.69-.24,13.39-.27,20.08-.08,.72,.02,1.45,.04,2.17,.07,.47,.02,.9,0,1.3-.03h.08c.12-.03,.23-.04,.34-.06l13.86-.09h.08c1.25,.03,2.46,.08,3.64,.24,2.34,.34,3.87,1.73,3.79,4.24Z"/></g></svg>