<?xml version="1.0" encoding="UTF-8"?><svg id="_레이어_2" xmlns="http://www.w3.org/2000/svg" viewBox="0 0 133.19 152.95"><defs><style>.cls-1{fill:#333;}.cls-2{fill:none;}.cls-3{fill:#568a35;}</style></defs><g id="_레이어_1-2"><line class="cls-2" x1="101.52" y1=".01" x2="101.51"/><line class="cls-2" x1="103.08" y1="45.81" x2="103.1" y2="45.84"/><g><path class="cls-1" d="M133.16,95.54c-.03-3.36-1.45-6.08-4.4-7.73-1.34-.75-1.73-1.61-1.71-3.07,.06-5.63,.12-11.27-.04-16.9-.17-5.64-3.64-9.86-9.07-11.21-1.45-.36-2.35-1.02-3.1-2.35-5.01-8.89-10.1-17.73-15.18-26.58-4.78-8.34-11.05-10.05-19.29-5.26-16.74,9.74-33.57,19.34-50.16,29.32-5.23,3.15-10.38,4.75-16.53,4.48C4.85,55.84,0,60.94,0,69.74,0,92.88,0,116.02,0,139.16c0,8.96,4.83,13.78,13.8,13.78,16.47,0,32.93,0,49.4,0s33.8,.02,50.7,0c8.17-.01,13.08-4.9,13.17-13.07,.05-5.11,.05-10.23-.02-15.34-.02-1.49,.19-2.49,1.72-3.32,2.98-1.6,4.36-4.38,4.38-7.73,.05-5.98,.04-11.96,0-17.94ZM36.82,54.82c15.82-9.23,31.63-18.44,47.46-27.64,3.08-1.79,5.86-1.66,7.9,.26,.36,.34,.63,.62,.73,.91h0s10.16,17.46,10.16,17.46l.02,.03c.11,.16,.22,.35,.33,.56,1.68,3.17,3.52,6.27,5.45,9.68h-26.13l-37.31,.1c-1.03,.07-2.07-.1-3.09-.06-2.29,.09-4.58,.02-6.95,.02,.29-.9,.94-1.03,1.42-1.31ZM121.13,124.86c-.1,4.93-.02,9.88-.05,14.82-.03,4.9-2.25,7.14-7.16,7.15-16.81,.02-33.62,0-50.44,0s-33.1,0-49.66,0c-5.86,0-7.72-1.89-7.72-7.83,0-23.05,0-46.1,0-69.15,0-5.64,2.03-7.7,7.64-7.71,33.19,0,66.39,0,99.58,0,5.68,0,7.76,2.14,7.77,7.91,0,4.76-.06,9.54,.04,14.3,.03,1.57-.34,2.09-1.99,2.05-5.19-.11-10.4-.06-15.6-.04-10.64,.05-18.74,7.86-18.77,18.09-.03,10.25,8.02,18.16,18.63,18.26,5.2,.05,10.4,.09,15.6-.04,1.75-.04,2.17,.52,2.13,2.19Zm5.92-11.74c0,2.34-1.2,3.48-3.54,3.47-3.64-.02-7.28,0-10.91,0v-.03c-3.38,0-6.76,.1-10.13-.02-6.55-.23-11.54-5.42-11.6-11.91-.06-6.5,4.81-11.85,11.39-12.05,7.09-.22,14.19-.08,21.29-.1,2.35,0,3.5,1.17,3.5,3.51,0,5.71,0,11.42,0,17.14Z"/><path class="cls-1" d="M108.9,104.61c-.04,3.31-2.66,5.92-5.96,5.93-3.35,.02-6.16-2.8-6.09-6.12,.06-3.21,2.83-5.94,6.02-5.97,3.35-.03,6.08,2.75,6.04,6.16Z"/></g><line class="cls-2" x1="45.44" y1="56.17" x2="44.39" y2="56.18"/><path class="cls-3" d="M103.08,45.81c-.61-.91-1.22-1.03-2.51-.23-4.7,2.9-9.52,5.6-14.29,8.38-.98,.57-1.94,1.17-3.53,2.11l-37.31,.1c.67-.04,1.34-.19,1.98-.56,14.85-8.66,29.69-17.33,44.57-25.92,.87-.5,1.1-.9,.93-1.33l10.16,17.45Z"/></g></svg>