<?xml version="1.0" encoding="UTF-8"?><svg id="_레이어_2" xmlns="http://www.w3.org/2000/svg" viewBox="0 0 140.24 149.34"><defs><style>.cls-1{fill:#333;}.cls-2{fill:#606060;}.cls-3{fill:#568a35;}</style></defs><g id="_레이어_1-2"><path class="cls-2" d="M72.81,3.17c.03,1.68-1.07,2.6-2.78,2.76-1.64-.25-2.66-1.09-2.59-2.86,.06-1.6,1-2.57,2.57-2.59,1.7-.03,2.77,1.04,2.8,2.69Z"/><path class="cls-1" d="M41.08,75.46c0-2.13-.04-4.26,.01-6.39,.06-2.59-1.24-3.68-3.74-3.66-3.78,.03-7.55,.02-11.33,0-2.51,0-3.73,1.19-3.72,3.73,.03,4.26,.03,8.52,0,12.78-.02,2.4,1.14,3.63,3.5,3.66,3.97,.04,7.94,.05,11.91,0,2.19-.03,3.4-1.13,3.37-3.44-.03-2.22,0-4.45,0-6.68Zm-5.82-.27c0,1.06-.08,1.75,.01,2.41,.27,1.85-.58,2.23-2.29,2.22-4.83-.02-4.87,.06-4.8-4.56,.02-1.3-.69-3.37,.43-3.75,1.82-.61,4.14-.71,5.95-.1,1.72,.58,.13,2.78,.71,3.77Z"/><path class="cls-1" d="M41.08,116.54c0-2.23-.03-4.46,0-6.68,.04-2.3-1.15-3.43-3.34-3.46-4.07-.05-8.13-.07-12.2,.01-2.05,.04-3.22,1.18-3.23,3.31,0,4.46,0,8.91,0,13.36,0,2.24,1.16,3.43,3.38,3.45,3.97,.04,7.94,.01,11.9,0,2.41,0,3.52-1.22,3.48-3.61-.04-2.13-.01-4.26-.01-6.39Zm-5.82-.16c0,.9-.08,1.59,.01,2.25,.21,1.6-.36,2.12-2.04,2.13-5.09,.03-5.13,.11-5.05-5.42,.02-1.03-.74-2.72,.7-3,1.93-.38,4.21-.75,5.92,.19,1.2,.67,.2,2.68,.46,3.85Z"/><path class="cls-1" d="M41.08,75.46c0-2.13-.04-4.26,.01-6.39,.06-2.59-1.24-3.68-3.74-3.66-3.78,.03-7.55,.02-11.33,0-2.51,0-3.73,1.19-3.72,3.73,.03,4.26,.03,8.52,0,12.78-.02,2.4,1.14,3.63,3.5,3.66,3.97,.04,7.94,.05,11.91,0,2.19-.03,3.4-1.13,3.37-3.44-.03-2.22,0-4.45,0-6.68Zm-5.82-.27c0,1.06-.08,1.75,.01,2.41,.27,1.85-.58,2.23-2.29,2.22-4.83-.02-4.87,.06-4.8-4.56,.02-1.3-.69-3.37,.43-3.75,1.82-.61,4.14-.71,5.95-.1,1.72,.58,.13,2.78,.71,3.77Z"/><path class="cls-1" d="M41.08,116.54c0-2.23-.03-4.46,0-6.68,.04-2.3-1.15-3.43-3.34-3.46-4.07-.05-8.13-.07-12.2,.01-2.05,.04-3.22,1.18-3.23,3.31,0,4.46,0,8.91,0,13.36,0,2.24,1.16,3.43,3.38,3.45,3.97,.04,7.94,.01,11.9,0,2.41,0,3.52-1.22,3.48-3.61-.04-2.13-.01-4.26-.01-6.39Zm-5.82-.16c0,.9-.08,1.59,.01,2.25,.21,1.6-.36,2.12-2.04,2.13-5.09,.03-5.13,.11-5.05-5.42,.02-1.03-.74-2.72,.7-3,1.93-.38,4.21-.75,5.92,.19,1.2,.67,.2,2.68,.46,3.85Z"/><path class="cls-1" d="M117.82,109.95c0-2.21-1.08-3.51-3.32-3.55-4.07-.07-8.13-.07-12.2,0-2.24,.03-3.34,1.3-3.34,3.51v6.4c0,2.22,0,4.45,0,6.68,0,2.35,1.16,3.58,3.57,3.56,3.87-.02,7.75-.02,11.63,0,2.37,.02,3.62-1.17,3.64-3.52,.04-4.36,.02-8.72,0-13.07Zm-6.27,10.48c-1.82,.62-3.99,.29-6.01,.22-.95-.04-.73-.97-.75-1.6-.03-1.36,.14-2.73-.04-4.06-.31-2.35,.63-2.94,2.89-2.86,4.35,.16,4.35,.03,4.35,4.74-.22,1.08,.67,3.16-.45,3.55Zm6.26-51.47c-.03-2.35-1.24-3.55-3.62-3.54-3.88,0-7.76,0-11.63,0-2.39-.02-3.59,1.18-3.59,3.55-.02,4.35,0,8.71,0,13.07,0,2.39,1.24,3.55,3.61,3.55,3.87,0,7.75,.02,11.62,0,2.54,0,3.67-1.36,3.64-3.85-.03-2.03,0-4.07,0-6.09,0-2.23,.02-4.46-.02-6.69Zm-5.81,6.21c0,1.15-.07,1.93,.02,2.69,.19,1.57-.53,1.92-2,1.96-5.23,.15-5.28,.21-5.2-5.09,.02-1.14-.76-2.97,.68-3.32,1.92-.45,4.21-.56,5.99,.09,1.32,.5,.13,2.66,.5,3.66Zm5.81-6.21c-.03-2.35-1.24-3.55-3.62-3.54-3.88,0-7.76,0-11.63,0-2.39-.02-3.59,1.18-3.59,3.55-.02,4.35,0,8.71,0,13.07,0,2.39,1.24,3.55,3.61,3.55,3.87,0,7.75,.02,11.62,0,2.54,0,3.67-1.36,3.64-3.85-.03-2.03,0-4.07,0-6.09,0-2.23,.02-4.46-.02-6.69Zm-5.81,6.21c0,1.15-.07,1.93,.02,2.69,.19,1.57-.53,1.92-2,1.96-5.23,.15-5.28,.21-5.2-5.09,.02-1.14-.76-2.97,.68-3.32,1.92-.45,4.21-.56,5.99,.09,1.32,.5,.13,2.66,.5,3.66Zm5.82,34.79c0-2.21-1.08-3.51-3.32-3.55-4.07-.07-8.13-.07-12.2,0-2.24,.03-3.34,1.3-3.34,3.51v6.4c0,2.22,0,4.45,0,6.68,0,2.35,1.16,3.58,3.57,3.56,3.87-.02,7.75-.02,11.63,0,2.37,.02,3.62-1.17,3.64-3.52,.04-4.36,.02-8.72,0-13.07Zm-6.27,10.48c-1.82,.62-3.99,.29-6.01,.22-.95-.04-.73-.97-.75-1.6-.03-1.36,.14-2.73-.04-4.06-.31-2.35,.63-2.94,2.89-2.86,4.35,.16,4.35,.03,4.35,4.74-.22,1.08,.67,3.16-.45,3.55Zm6.27-10.48c0-2.21-1.08-3.51-3.32-3.55-4.07-.07-8.13-.07-12.2,0-2.24,.03-3.34,1.3-3.34,3.51v6.4c0,2.22,0,4.45,0,6.68,0,2.35,1.16,3.58,3.57,3.56,3.87-.02,7.75-.02,11.63,0,2.37,.02,3.62-1.17,3.64-3.52,.04-4.36,.02-8.72,0-13.07Zm-6.27,10.48c-1.82,.62-3.99,.29-6.01,.22-.95-.04-.73-.97-.75-1.6-.03-1.36,.14-2.73-.04-4.06-.31-2.35,.63-2.94,2.89-2.86,4.35,.16,4.35,.03,4.35,4.74-.22,1.08,.67,3.16-.45,3.55Zm6.26-51.47c-.03-2.35-1.24-3.55-3.62-3.54-3.88,0-7.76,0-11.63,0-2.39-.02-3.59,1.18-3.59,3.55-.02,4.35,0,8.71,0,13.07,0,2.39,1.24,3.55,3.61,3.55,3.87,0,7.75,.02,11.62,0,2.54,0,3.67-1.36,3.64-3.85-.03-2.03,0-4.07,0-6.09,0-2.23,.02-4.46-.02-6.69Zm-5.81,6.21c0,1.15-.07,1.93,.02,2.69,.19,1.57-.53,1.92-2,1.96-5.23,.15-5.28,.21-5.2-5.09,.02-1.14-.76-2.97,.68-3.32,1.92-.45,4.21-.56,5.99,.09,1.32,.5,.13,2.66,.5,3.66Zm-9.42,10.43c3.87,0,7.75,.02,11.62,0,2.54,0,3.67-1.36,3.64-3.85-.03-2.03,0-4.07,0-6.09,0-2.23,.02-4.46-.02-6.69-.03-2.35-1.24-3.55-3.62-3.54-3.88,0-7.76,0-11.63,0-2.39-.02-3.59,1.18-3.59,3.55-.02,4.35,0,8.71,0,13.07,0,2.39,1.24,3.55,3.61,3.55Zm2.93-14.19c1.92-.45,4.21-.56,5.99,.09,1.32,.5,.13,2.66,.5,3.66,0,1.15-.07,1.93,.02,2.69,.19,1.57-.53,1.92-2,1.96-5.23,.15-5.28,.21-5.2-5.09,.02-1.14-.76-2.97,.68-3.32Zm9,35c-4.07-.07-8.13-.07-12.2,0-2.24,.03-3.34,1.3-3.34,3.51v6.4c0,2.22,0,4.45,0,6.68,0,2.35,1.16,3.58,3.57,3.56,3.87-.02,7.75-.02,11.63,0,2.37,.02,3.62-1.17,3.64-3.52,.04-4.36,.02-8.72,0-13.07,0-2.21-1.08-3.51-3.32-3.55Zm-2.95,14.03c-1.82,.62-3.99,.29-6.01,.22-.95-.04-.73-.97-.75-1.6-.03-1.36,.14-2.73-.04-4.06-.31-2.35,.63-2.94,2.89-2.86,4.35,.16,4.35,.03,4.35,4.74-.22,1.08,.67,3.16-.45,3.55Zm27.97-82.86c-5.42-11.59-10.92-23.13-16.3-34.73C122.27,.8,121-.03,118.73,0c-10,.09-20.01,.03-30.02,.04-1.94,0-3.9-.07-5.83,.05-1.7,.11-2.7,1.24-2.7,2.88,0,1.63,1.03,2.68,2.72,2.87,.77,.08,1.55,.04,2.34,.04,10,0,20.01,.1,30.02-.07,2.37-.05,3.36,.81,4.26,2.79,3.95,8.63,8.05,17.19,12.06,25.79,.35,.75,1.04,1.42,.71,2.54-13,0-26.01-.02-39.03,.04-1.39,0-1.73-.76-2.23-1.77-4.29-8.44-11.16-13.23-20.64-13.22-9.56,.02-16.59,4.69-20.81,13.37-.43,.89-.76,1.62-2.04,1.61-13.2-.05-26.41-.03-40.1-.03,4.64-9.86,9.11-19.19,13.44-28.6,.82-1.79,1.72-2.54,3.82-2.51,10.59,.12,21.18,.05,31.77,.07,2.1,0,3.78-.56,3.75-2.99-.03-2.25-1.6-2.86-3.59-2.86-11.86,.02-23.71,.04-35.57-.02-1.92,0-3.09,.74-3.86,2.43-1.44,3.18-2.93,6.33-4.42,9.49C8.75,20.51,4.68,29.09,.67,37.7c-1.53,3.29-.43,4.98,3.17,5.06,1.17,.02,2.35,.13,3.5-.03,2.6-.36,3.36,.51,3.35,3.24-.1,32.85-.07,65.7-.07,98.54,0,4.24,.59,4.82,4.9,4.82H124.55c4.49,0,5.06-.56,5.06-4.96V49.62q0-6.76,6.64-6.86c3.79-.07,4.9-1.75,3.28-5.2ZM44.65,143.55c-8.45-.11-16.91-.17-25.34,.03-2.55,.06-2.92-.76-2.91-3.06,.1-15.84,.05-31.67,.05-47.49s.06-31.66-.06-47.49c-.02-2.35,.65-2.87,2.9-2.84,8.54,.14,17.09,.11,25.63,.02,1.93-.02,2.63,.35,2.62,2.5-.07,31.86-.08,63.71,0,95.57,0,2.39-.74,2.8-2.9,2.77Zm22.73-11.71c0,3.3-.07,6.61,.03,9.92,.04,1.42-.43,1.81-1.81,1.78-3.5-.08-6.99-.08-10.49,0-1.38,.03-1.84-.38-1.82-1.8,.07-6.41,.07-12.83,0-19.24-.02-1.55,.5-2.02,2-1.98,3.4,.09,6.8,.11,10.21,0,1.6-.06,1.96,.53,1.92,2.01-.1,3.1-.03,6.21-.03,9.33Zm18.14,11.69c-3.5-.09-7-.07-10.49,0-1.35,.03-1.86-.34-1.85-1.78,.07-6.41,.07-12.82,0-19.23,0-1.53,.47-2.05,1.99-2.01,3.4,.09,6.81,.1,10.2,0,1.57-.05,2,.51,1.95,2.01-.1,3.1-.03,6.21-.03,9.33,0,3.3-.07,6.61,.04,9.91,.04,1.43-.41,1.83-1.81,1.78Zm-.77-28.77c-9.62-.11-19.23-.1-28.84,0-1.97,.02-2.65-.41-2.65-2.54,.08-22.33,.02-44.67,.07-66.99,.03-9.76,7.59-17.45,16.95-17.5,9.31-.05,16.89,7.62,16.98,17.43,.11,11.06,.03,22.14,.03,33.2s-.05,22.53,.05,33.79c0,2.02-.52,2.64-2.59,2.63Zm39.03-21.4c0,15.84-.05,31.67,.05,47.51,.02,2.15-.47,2.74-2.67,2.69-8.45-.14-16.91-.13-25.35,0-2.15,.04-2.75-.46-2.74-2.68,.07-31.97,.07-63.93,0-95.89,0-1.86,.5-2.29,2.26-2.27,8.64,.08,17.29,.1,25.93,0,2.04-.03,2.58,.52,2.57,2.56-.09,16.03-.05,32.06-.05,48.09Zm-9.59-27.94c-3.88,0-7.76,0-11.63,0-2.39-.02-3.59,1.18-3.59,3.55-.02,4.35,0,8.71,0,13.07,0,2.39,1.24,3.55,3.61,3.55,3.87,0,7.75,.02,11.62,0,2.54,0,3.67-1.36,3.64-3.85-.03-2.03,0-4.07,0-6.09,0-2.23,.02-4.46-.02-6.69-.03-2.35-1.24-3.55-3.62-3.54Zm-2.2,9.75c0,1.15-.07,1.93,.02,2.69,.19,1.57-.53,1.92-2,1.96-5.23,.15-5.28,.21-5.2-5.09,.02-1.14-.76-2.97,.68-3.32,1.92-.45,4.21-.56,5.99,.09,1.32,.5,.13,2.66,.5,3.66Zm2.5,31.24c-4.07-.07-8.13-.07-12.2,0-2.24,.03-3.34,1.3-3.34,3.51v6.4c0,2.22,0,4.45,0,6.68,0,2.35,1.16,3.58,3.57,3.56,3.87-.02,7.75-.02,11.63,0,2.37,.02,3.62-1.17,3.64-3.52,.04-4.36,.02-8.72,0-13.07,0-2.21-1.08-3.51-3.32-3.55Zm-2.95,14.03c-1.82,.62-3.99,.29-6.01,.22-.95-.04-.73-.97-.75-1.6-.03-1.36,.14-2.73-.04-4.06-.31-2.35,.63-2.94,2.89-2.86,4.35,.16,4.35,.03,4.35,4.74-.22,1.08,.67,3.16-.45,3.55Zm6.27-10.48c0-2.21-1.08-3.51-3.32-3.55-4.07-.07-8.13-.07-12.2,0-2.24,.03-3.34,1.3-3.34,3.51v6.4c0,2.22,0,4.45,0,6.68,0,2.35,1.16,3.58,3.57,3.56,3.87-.02,7.75-.02,11.63,0,2.37,.02,3.62-1.17,3.64-3.52,.04-4.36,.02-8.72,0-13.07Zm-6.27,10.48c-1.82,.62-3.99,.29-6.01,.22-.95-.04-.73-.97-.75-1.6-.03-1.36,.14-2.73-.04-4.06-.31-2.35,.63-2.94,2.89-2.86,4.35,.16,4.35,.03,4.35,4.74-.22,1.08,.67,3.16-.45,3.55Zm6.26-51.47c-.03-2.35-1.24-3.55-3.62-3.54-3.88,0-7.76,0-11.63,0-2.39-.02-3.59,1.18-3.59,3.55-.02,4.35,0,8.71,0,13.07,0,2.39,1.24,3.55,3.61,3.55,3.87,0,7.75,.02,11.62,0,2.54,0,3.67-1.36,3.64-3.85-.03-2.03,0-4.07,0-6.09,0-2.23,.02-4.46-.02-6.69Zm-5.81,6.21c0,1.15-.07,1.93,.02,2.69,.19,1.57-.53,1.92-2,1.96-5.23,.15-5.28,.21-5.2-5.09,.02-1.14-.76-2.97,.68-3.32,1.92-.45,4.21-.56,5.99,.09,1.32,.5,.13,2.66,.5,3.66Zm5.81-6.21c-.03-2.35-1.24-3.55-3.62-3.54-3.88,0-7.76,0-11.63,0-2.39-.02-3.59,1.18-3.59,3.55-.02,4.35,0,8.71,0,13.07,0,2.39,1.24,3.55,3.61,3.55,3.87,0,7.75,.02,11.62,0,2.54,0,3.67-1.36,3.64-3.85-.03-2.03,0-4.07,0-6.09,0-2.23,.02-4.46-.02-6.69Zm-5.81,6.21c0,1.15-.07,1.93,.02,2.69,.19,1.57-.53,1.92-2,1.96-5.23,.15-5.28,.21-5.2-5.09,.02-1.14-.76-2.97,.68-3.32,1.92-.45,4.21-.56,5.99,.09,1.32,.5,.13,2.66,.5,3.66Zm5.82,34.79c0-2.21-1.08-3.51-3.32-3.55-4.07-.07-8.13-.07-12.2,0-2.24,.03-3.34,1.3-3.34,3.51v6.4c0,2.22,0,4.45,0,6.68,0,2.35,1.16,3.58,3.57,3.56,3.87-.02,7.75-.02,11.63,0,2.37,.02,3.62-1.17,3.64-3.52,.04-4.36,.02-8.72,0-13.07Zm-6.27,10.48c-1.82,.62-3.99,.29-6.01,.22-.95-.04-.73-.97-.75-1.6-.03-1.36,.14-2.73-.04-4.06-.31-2.35,.63-2.94,2.89-2.86,4.35,.16,4.35,.03,4.35,4.74-.22,1.08,.67,3.16-.45,3.55Z"/><path class="cls-1" d="M41.08,75.46c0-2.13-.04-4.26,.01-6.39,.06-2.59-1.24-3.68-3.74-3.66-3.78,.03-7.55,.02-11.33,0-2.51,0-3.73,1.19-3.72,3.73,.03,4.26,.03,8.52,0,12.78-.02,2.4,1.14,3.63,3.5,3.66,3.97,.04,7.94,.05,11.91,0,2.19-.03,3.4-1.13,3.37-3.44-.03-2.22,0-4.45,0-6.68Zm-5.82-.27c0,1.06-.08,1.75,.01,2.41,.27,1.85-.58,2.23-2.29,2.22-4.83-.02-4.87,.06-4.8-4.56,.02-1.3-.69-3.37,.43-3.75,1.82-.61,4.14-.71,5.95-.1,1.72,.58,.13,2.78,.71,3.77Z"/><path class="cls-1" d="M41.08,116.54c0-2.23-.03-4.46,0-6.68,.04-2.3-1.15-3.43-3.34-3.46-4.07-.05-8.13-.07-12.2,.01-2.05,.04-3.22,1.18-3.23,3.31,0,4.46,0,8.91,0,13.36,0,2.24,1.16,3.43,3.38,3.45,3.97,.04,7.94,.01,11.9,0,2.41,0,3.52-1.22,3.48-3.61-.04-2.13-.01-4.26-.01-6.39Zm-5.82-.16c0,.9-.08,1.59,.01,2.25,.21,1.6-.36,2.12-2.04,2.13-5.09,.03-5.13,.11-5.05-5.42,.02-1.03-.74-2.72,.7-3,1.93-.38,4.21-.75,5.92,.19,1.2,.67,.2,2.68,.46,3.85Z"/><path class="cls-1" d="M117.82,109.95c0-2.21-1.08-3.51-3.31-3.55-4.07-.06-8.13-.06-12.2,0-2.24,.03-3.33,1.3-3.33,3.52v6.4c0,2.22-.01,4.45,0,6.68,.01,2.36,1.16,3.58,3.57,3.57,3.87-.02,7.75-.02,11.62,0,2.38,.01,3.62-1.17,3.64-3.53,.04-4.36,.01-8.71,0-13.07Zm-6.27,10.47c-1.82,.62-3.99,.3-6,.23-.95-.04-.73-.97-.75-1.6-.03-1.35,.13-2.73-.04-4.06-.31-2.35,.63-2.94,2.89-2.86,4.35,.16,4.36,.03,4.36,4.74-.23,1.08,.67,3.16-.46,3.55Z"/><path class="cls-1" d="M117.83,75.65c0-2.23,.02-4.46-.01-6.69-.03-2.36-1.24-3.55-3.62-3.55-3.87,0-7.75,.01-11.62,0-2.39-.01-3.58,1.18-3.59,3.55-.01,4.36,0,8.71,0,13.07,0,2.4,1.24,3.55,3.61,3.56,3.87,0,7.74,.01,11.62,0,2.54-.01,3.67-1.37,3.64-3.85-.03-2.03,0-4.07,0-6.1Zm-5.82-.48c0,1.15-.08,1.93,.02,2.7,.18,1.57-.54,1.91-2,1.96-5.23,.15-5.28,.2-5.2-5.1,.02-1.14-.76-2.97,.69-3.31,1.91-.46,4.2-.57,5.99,.09,1.31,.49,.13,2.66,.51,3.66Z"/><path class="cls-1" d="M41.08,75.46c0-2.13-.04-4.26,.01-6.39,.06-2.59-1.24-3.68-3.74-3.66-3.78,.03-7.55,.02-11.33,0-2.51,0-3.73,1.19-3.72,3.73,.03,4.26,.03,8.52,0,12.78-.02,2.4,1.14,3.63,3.5,3.66,3.97,.04,7.94,.05,11.91,0,2.19-.03,3.4-1.13,3.37-3.44-.03-2.22,0-4.45,0-6.68Zm-5.82-.27c0,1.06-.08,1.75,.01,2.41,.27,1.85-.58,2.23-2.29,2.22-4.83-.02-4.87,.06-4.8-4.56,.02-1.3-.69-3.37,.43-3.75,1.82-.61,4.14-.71,5.95-.1,1.72,.58,.13,2.78,.71,3.77Z"/><path class="cls-1" d="M41.08,116.54c0-2.23-.03-4.46,0-6.68,.04-2.3-1.15-3.43-3.34-3.46-4.07-.05-8.13-.07-12.2,.01-2.05,.04-3.22,1.18-3.23,3.31,0,4.46,0,8.91,0,13.36,0,2.24,1.16,3.43,3.38,3.45,3.97,.04,7.94,.01,11.9,0,2.41,0,3.52-1.22,3.48-3.61-.04-2.13-.01-4.26-.01-6.39Zm-5.82-.16c0,.9-.08,1.59,.01,2.25,.21,1.6-.36,2.12-2.04,2.13-5.09,.03-5.13,.11-5.05-5.42,.02-1.03-.74-2.72,.7-3,1.93-.38,4.21-.75,5.92,.19,1.2,.67,.2,2.68,.46,3.85Z"/><path class="cls-1" d="M117.83,75.65c0-2.23,.02-4.46-.01-6.69-.03-2.36-1.24-3.55-3.62-3.55-3.87,0-7.75,.01-11.62,0-2.39-.01-3.58,1.18-3.59,3.55-.01,4.36,0,8.71,0,13.07,0,2.4,1.24,3.55,3.61,3.56,3.87,0,7.74,.01,11.62,0,2.54-.01,3.67-1.37,3.64-3.85-.03-2.03,0-4.07,0-6.1Zm-5.82-.48c0,1.15-.08,1.93,.02,2.7,.18,1.57-.54,1.91-2,1.96-5.23,.15-5.28,.2-5.2-5.1,.02-1.14-.76-2.97,.69-3.31,1.91-.46,4.2-.57,5.99,.09,1.31,.49,.13,2.66,.51,3.66Z"/><path class="cls-1" d="M117.82,109.95c0-2.21-1.08-3.51-3.31-3.55-4.07-.06-8.13-.06-12.2,0-2.24,.03-3.33,1.3-3.33,3.52v6.4c0,2.22-.01,4.45,0,6.68,.01,2.36,1.16,3.58,3.57,3.57,3.87-.02,7.75-.02,11.62,0,2.38,.01,3.62-1.17,3.64-3.53,.04-4.36,.01-8.71,0-13.07Zm-6.27,10.47c-1.82,.62-3.99,.3-6,.23-.95-.04-.73-.97-.75-1.6-.03-1.35,.13-2.73-.04-4.06-.31-2.35,.63-2.94,2.89-2.86,4.35,.16,4.36,.03,4.36,4.74-.23,1.08,.67,3.16-.46,3.55Z"/><path class="cls-3" d="M79.85,74.25c0,9.72,.02,19.43,0,29.14,0,3.62-.8,4.39-4.49,4.41-3.69,.02-7.38,0-11.07,0-2.6,0-3.92-1.08-3.92-3.84,.04-19.72,0-39.45,.04-59.16,.02-5.66,4.24-9.82,9.72-9.82s9.63,4.08,9.69,9.83c.09,9.81,.02,19.62,.03,29.44Z"/></g></svg>