<?xml version="1.0" encoding="UTF-8"?><svg id="_레이어_2" xmlns="http://www.w3.org/2000/svg" viewBox="0 0 131.66 121.68"><defs><style>.cls-1{fill:#333;}.cls-2{fill:none;}.cls-3{fill:#606060;}.cls-4{fill:#568a35;}</style></defs><g id="_레이어_1-2"><path class="cls-3" d="M4.23,43.18l-.04-.07c.05,.16,.11,.31,.17,.47l.09,.05,.1,.05-.31-.5Z"/><polyline class="cls-2" points="61.98 43.8 65.62 43.78 69.69 43.75"/><path class="cls-3" d="M4.53,43.69l-.1-.05c-.1-.19-.17-.35-.21-.45l.31,.5Z"/><path class="cls-1" d="M121.28,11.89c-13.81-14.95-37.05-15.85-53.39-2.39-1.57,1.29-2.38,1.55-4.12,.09C56.33,3.3,47.66,.12,41.89,.09,19.66,.12,4.75,12.08,.91,29.93c-2.57,11.94,.55,22.85,6.63,33.08,5.64,9.5,13.18,17.44,20.94,25.18,11.1,11.06,23.43,20.8,34.33,32.07,1.89,1.96,4.08,1.85,6.09-.09,3.65-3.48,7.17-7.12,10.9-10.5,10.74-9.7,21.65-19.2,31.44-29.88,7.19-7.85,13.78-16.17,17.4-26.34,5.43-15.2,3.84-29.44-7.36-41.56Zm-.79,41.08c-3.18,7.49-8.1,13.84-13.48,19.85-10.46,11.7-22.35,21.92-33.98,32.4-2.1,1.89-4.1,3.89-6.07,5.9-.8,.83-1.31,1.03-2.24,.09-9.97-10.01-21.02-18.85-31.02-28.83-6.55-6.54-12.94-13.21-18.03-20.98-3.93-5.98-6.75-12.4-7.61-19.62C5.9,23.43,19.62,7.84,40.2,7.92c7.06,.22,14.94,3.62,21.38,10.23,3.63,3.71,4.83,3.75,8.51-.1,14.81-15.49,40.13-12.88,49.94,5.26,5.27,9.74,4.69,19.72,.47,29.66Z"/><g><path class="cls-4" d="M84.99,47.07c-2.91,0-5.83-.04-8.74,.02-.79,.02-.99-.19-.98-.98,.05-2.91,.03-5.83,.02-8.75,0-1.58-.47-2.07-2.02-2.08-4.55-.02-9.13-.02-13.68,0-1.55,0-2.01,.5-2.02,2.08,0,2.91-.04,5.83,.02,8.75,.02,.78-.19,.99-.98,.98-2.92-.05-5.82-.03-8.75-.02-1.58,0-2.07,.46-2.08,2.02-.02,4.56-.02,9.13,0,13.69,0,1.55,.5,2.01,2.08,2.01,2.92,.02,5.82,.04,8.75,0,.78-.02,.99,.19,.98,.98-.05,2.74-.02,5.49-.02,8.24,0,2.34,.26,2.58,2.65,2.58,2.07,0,4.14,0,6.21,0h6.09c2.57,0,2.78-.2,2.78-2.71,0-2.71,.04-5.41-.02-8.12-.02-.79,.18-.99,.98-.98,2.9,.04,5.82,.03,8.74,0,1.58,0,2.07-.45,2.08-2.01,.02-4.56,.02-9.13,0-13.69,0-1.55-.5-2.01-2.08-2.02Zm-.83,8.88c0,1.6-.04,3.21,.02,4.81,.03,.81-.18,1.08-1.04,1.07-2.82-.05-5.67-.02-8.49-.02-1.87,0-2.34,.45-2.34,2.31,0,2.82-.04,5.67,.02,8.5,0,.8-.18,1.07-1.04,1.07-3.21-.05-6.42-.05-9.63,0-.87,0-1.16-.2-1.14-1.1,.06-2.83,.03-5.67,.02-8.49,0-1.79-.47-2.27-2.25-2.28-2.86,0-5.74-.03-8.6,.02-.75,0-1.01-.16-1-.97,.04-3.25,.04-6.51,0-9.76,0-.8,.17-1.09,1.04-1.07,2.86,.06,5.74,.04,8.6,.02,1.71,0,2.2-.49,2.21-2.18,0-2.87,.03-5.74-.02-8.62,0-.8,.18-1.08,1.04-1.07,3.21,.05,6.42,.05,9.63,0,.87-.02,1.15,.19,1.14,1.1-.06,2.83-.03,5.67-.02,8.49,0,1.79,.47,2.27,2.24,2.27,2.88,0,5.74,.03,8.62,0,.75,0,1.04,.16,1,.97-.07,1.64-.02,3.29-.02,4.95Z"/><path class="cls-4" d="M84.99,47.07c-2.91,0-5.83-.04-8.74,.02-.79,.02-.99-.19-.98-.98,.05-2.91,.03-5.83,.02-8.75,0-1.58-.47-2.07-2.02-2.08-4.55-.02-9.13-.02-13.68,0-1.55,0-2.01,.5-2.02,2.08,0,2.91-.04,5.83,.02,8.75,.02,.78-.19,.99-.98,.98-2.92-.05-5.82-.03-8.75-.02-1.58,0-2.07,.46-2.08,2.02-.02,4.56-.02,9.13,0,13.69,0,1.55,.5,2.01,2.08,2.01,2.92,.02,5.82,.04,8.75,0,.78-.02,.99,.19,.98,.98-.05,2.74-.02,5.49-.02,8.24,0,2.34,.26,2.58,2.65,2.58,2.07,0,4.14,0,6.21,0h6.09c2.57,0,2.78-.2,2.78-2.71,0-2.71,.04-5.41-.02-8.12-.02-.79,.18-.99,.98-.98,2.9,.04,5.82,.03,8.74,0,1.58,0,2.07-.45,2.08-2.01,.02-4.56,.02-9.13,0-13.69,0-1.55-.5-2.01-2.08-2.02Zm-.83,8.88c0,1.6-.04,3.21,.02,4.81,.03,.81-.18,1.08-1.04,1.07-2.82-.05-5.67-.02-8.49-.02-1.87,0-2.34,.45-2.34,2.31,0,2.82-.04,5.67,.02,8.5,0,.8-.18,1.07-1.04,1.07-3.21-.05-6.42-.05-9.63,0-.87,0-1.16-.2-1.14-1.1,.06-2.83,.03-5.67,.02-8.49,0-1.79-.47-2.27-2.25-2.28-2.86,0-5.74-.03-8.6,.02-.75,0-1.01-.16-1-.97,.04-3.25,.04-6.51,0-9.76,0-.8,.17-1.09,1.04-1.07,2.86,.06,5.74,.04,8.6,.02,1.71,0,2.2-.49,2.21-2.18,0-2.87,.03-5.74-.02-8.62,0-.8,.18-1.08,1.04-1.07,3.21,.05,6.42,.05,9.63,0,.87-.02,1.15,.19,1.14,1.1-.06,2.83-.03,5.67-.02,8.49,0,1.79,.47,2.27,2.24,2.27,2.88,0,5.74,.03,8.62,0,.75,0,1.04,.16,1,.97-.07,1.64-.02,3.29-.02,4.95Z"/><path class="cls-4" d="M84.18,60.77c.03,.81-.18,1.08-1.04,1.07-2.82-.05-5.67-.02-8.49-.02-1.87,0-2.34,.45-2.34,2.31,0,2.82-.04,5.67,.02,8.5,0,.8-.18,1.07-1.04,1.07-3.21-.05-6.42-.05-9.63,0-.87,0-1.16-.2-1.14-1.1,.06-2.83,.03-5.67,.02-8.49,0-1.79-.47-2.27-2.25-2.28-2.86,0-5.74-.03-8.6,.02-.75,0-1.01-.16-1-.97,.04-3.25,.04-6.51,0-9.76,0-.8,.17-1.09,1.04-1.07,2.86,.06,5.74,.04,8.6,.02,1.71,0,2.2-.49,2.21-2.18,0-2.87,.03-5.74-.02-8.62,0-.8,.18-1.08,1.04-1.07,3.21,.05,6.42,.05,9.63,0,.87-.02,1.15,.19,1.14,1.1-.06,2.83-.03,5.67-.02,8.49,0,1.79,.47,2.27,2.24,2.27,2.88,0,5.74,.03,8.62,0,.75,0,1.04,.16,1,.97-.07,1.64-.02,3.29-.02,4.95s-.04,3.21,.02,4.81Z"/></g></g></svg>