<?xml version="1.0" encoding="UTF-8"?><svg id="_레이어_2" xmlns="http://www.w3.org/2000/svg" viewBox="0 0 152.17 152.2"><defs><style>.cls-1{fill:#333;}.cls-2{fill:#568a35;}</style></defs><g id="_레이어_1-2"><path class="cls-1" d="M137.72,66.67c-2.2-2.27-1.96-6.14,.5-8.21,3.49-2.93,6.94-5.9,10.47-8.78,1.43-1.17,1.77-2.36,1.13-4.13q-4.19-11.75-15.59-16.72c-.27-.11-.58-.17-.81-.34-7.55-5.16-15.15-4.86-22.79-.22-.17,.1-.36,.2-.54,.24-1.87,.51-2.4,1.79-2.26,3.61,.33,4.45,.57,8.89,.87,13.34,.24,3.6-2.33,6.32-5.99,6.27-8.58-.12-16.67,1.8-24.19,5.89-1.64,.9-2.86,.97-4.55,.05-7.23-3.98-15.04-5.91-23.3-5.93-5.27,0-7.35-2.23-6.91-7.35,.13-1.58,.24-3.16,.36-4.74-.04,0-.07,0-.11,0,.18-2.47,.29-4.93,.53-7.4,.2-1.96-.56-3.03-2.41-3.83-11.45-4.92-11.43-4.96-22.8-.06-.18,.07-.36,.19-.54,.23-8.82,2.02-14.08,7.51-15.92,16.34-.02,.09-.08,.18-.13,.26-.96,1.86-.59,3.3,1.09,4.64,3.4,2.72,6.67,5.59,10.01,8.38,3.03,2.55,3.19,5.97,.46,8.82C3.43,78.35-1.35,91.95,.33,107.42c3.87,35.61,42.22,55.61,73.78,38.66,1.63-.87,2.69-.77,4.25,.07,33.12,17.62,73.42-6.03,73.81-43.3,.15-14.01-4.71-26.08-14.45-36.17Zm5.59-24.35c-2.41-.4-4.35-1.51-6.82-2.69q5.22-1.69,6.82,2.69Zm-8.08,3.49c.67-.92,1.35-.93,2.25-.5,1.87,.85,3.76,1.66,5.91,2.62-3.66,3.08-7.11,6.15-10.75,8.98-1.79,1.4-3.12-.76-5-1.07,2.64-3.49,5.15-6.73,7.59-10.02Zm-10.31-5.74q7.14,2.12,2.73,7.9c-1.47,1.93-2.97,3.83-4.45,5.74-.26-.09-.52-.2-.78-.29,.7-4.43,1.41-8.85,2.1-13.22,.21-.07,.33-.14,.4-.12Zm-1.37-5.91c-2.54-1.08-4.59-1.95-6.65-2.83,3.95-2.85,4.18-2.77,6.65,2.83Zm-9.68,1.03q6.22,2.36,5.18,8.94c-.24,1.55-.39,3.13-.74,4.66-.21,.87,.27,2.67-1.33,2.25-1.26-.33-3.3-.28-3.4-2.53-.21-4.41-.49-8.82-.75-13.34,.66,0,.88-.06,1.04,0Zm-5.09,25.84q.5-8.01,7.71-4.91c4.52,1.95,9.03,3.93,13.58,5.83,1.8,.75,2.01,1.5,.55,2.89-1.79,1.69-3.44,3.54-5.14,5.34-3.21,3.35-3.17,3.29-7.36,1.37-1.21-.55-1.61-1.18-1.56-2.43,.08-2.27,.02-4.55,.03-6.82,0-1.63-.71-2.76-2.39-2.75-1.68,.02-2.36,1.19-2.35,2.79,0,1.38,.06,2.77-.04,4.15-.04,.65,.5,1.88-.6,1.85-1.05-.03-2.44-.31-2.42-1.98,.02-1.78,0-3.55,0-5.34Zm.31,11.77c3.28,1.35,6.53,2.79,9.77,4.23,1.76,.78,3.54,1.36,5.41,.48,1.44-.68,1.96,.49,2.65,1.22,17.7,18.81,8.32,50.16-16.81,56.23-6.93,1.67-13.69,1.24-20.42-1.35,14.61-21.33,14.67-42.31,0-63.41,4.2-1.76,8.53-2.46,13.02-2.39,.73,0,1.31,.04,1.61,.92,.77,2.29,2.72,3.21,4.78,4.07Zm-6.67-16.36c1.73,0,2.31,.5,1.93,2.18-.15,.66-.19,1.38-.12,2.07,.17,1.81-.38,2.52-2.41,2.45-4.57-.19-9.04,.71-13.26,2.41-1.91,.77-3.21,.73-4.54-.9-.86-1.03-2-1.81-3.28-2.94,7.08-3.58,14.16-5.3,21.69-5.26Zm-54.31,1.72c-.77-2.53,1.52-1.66,2.6-1.66,24.9-.03,45.12,20.32,45.12,50.1-.05,5.55-3.26,14.77-9.4,23.05-2.35,3.2-3.53,0-5.14-.71-2.08-.92-1.12-2.05-.19-3.34,9.28-12.77,11.02-26.54,4.06-40.74-6.91-14.08-18.76-21.25-34.41-21.71-4.54-.14-2.12-3.27-2.64-5Zm29.65,64.14c-1.22,1.7-1.9,1.65-3.16,0-8.94-11.71-8.9-29.38,.1-40.88,1.21-1.54,1.78-1.59,2.94,0,4.47,6.09,6.71,12.9,6.87,20.25-.1,7.7-2.36,14.49-6.76,20.62Zm-32.22-50.57c.68-.31,1.55-.93,1.71-1.55,.73-2.88,2.92-2.43,4.92-2.33,3.57,.18,7.02,.93,10.54,2.28-14.73,21.31-14.64,42.3,0,63.52-12.03,4.29-23.22,2.82-33.28-4.92-15.76-12.13-17.62-34.89-4.33-49.69,1.11-1.24,2.07-2.28,3.97-1.28,.68,.36,1.84,.26,2.61-.06,4.65-1.91,9.26-3.92,13.86-5.97Zm-2.48-16.48c.13,3.36,.36,6.71,.48,10.07,.08,2.38,.04,2.38-2.99,3.1,0-2.1,0-4.16,0-6.21,0-1.64-.78-2.72-2.47-2.66-1.5,.05-2.25,1.09-2.26,2.58-.03,2.37-.09,4.75,0,7.12,.11,2.83-2.5,2.28-3.88,3.24-.99,.69-2.04,.97-3.12-.24-2.37-2.64-4.88-5.18-7.36-7.72-1.01-1.04-1.1-1.7,.4-2.35,6.44-2.73,12.86-5.49,19.27-8.3,1.58-.7,1.88,0,1.93,1.36Zm-4.27-6.71c-.11,2.25-2.17,2.2-3.43,2.51-1.54,.39-1.14-1.39-1.3-2.27-.55-2.9-.79-5.86-1.49-8.72-.41-1.73-.02-2.52,1.59-3.07,1.65-.56,3.24-1.31,5.4-2.21-.28,4.93-.56,9.35-.78,13.76Zm-3.27-17.22c-2.1,.9-4.15,1.77-6.74,2.87q2.61-5.67,6.74-2.87Zm-5.55,22.09c-.28,.09-.56,.2-.83,.3-2.55-3.34-5.08-6.67-7.65-9.99-.65-.85-.21-1.16,.55-1.47,1.8-.74,3.6-1.51,5.72-2.41,.76,4.66,1.49,9.11,2.21,13.57Zm-14.26-13.84c-2.04,1.36-4.21,2.07-6.48,2.95,1.5-5.34,.7-4.74,6.48-2.95Zm-6.6,8.42q6.96-3.57,11.39,2.25c1.35,1.78,2.72,3.56,4.05,5.29-2.64,2.36-4.78,1.9-7.12-.42-2.57-2.54-5.49-4.73-8.32-7.12Zm37.49,99.23c-24.67-2.35-42.51-22.59-41.63-47.29,.4-11.39,4.82-21.23,12.6-29.6,1.16-1.25,1.93-1.38,2.93,.04,.39,.56,.89,1.07,1.43,1.49,1.67,1.26,1.39,2.21,.03,3.7-19.78,21.6-9.92,55.91,18.27,63.77,7.76,2.16,15.48,1.95,23.01-.88,2.3-.86,3.97-1.02,5.56,1.1,.67,.91,1.73,1.53,2.86,2.5-8.05,4.23-16.34,6-25.05,5.17Zm40.49-2.33c-18.33-6.35-30.56-23.57-30.56-47.62,.04-5.61,3.23-14.73,9.26-22.98,2.3-3.16,3.52-.32,5.16,.46,2.14,1.03,1.35,2.08,.28,3.57-9.47,12.99-11.1,27-3.76,41.28,7.35,14.26,19.74,21.57,35.75,21.03,16.13-.55,28.1-8.67,34.4-23.59,6.28-14.9,3.5-28.82-6.87-41.23-.64-.75-2.29-1.34-1.53-2.49,1.01-1.53,2.42-2.91,3.93-3.97,.69-.49,1.37,.83,1.93,1.43,15.44,16.25,16.56,41.53,2.65,59.2-12.02,15.26-32.37,21.25-50.66,14.91Z"/><path class="cls-2" d="M96.73,2c-6.34-3.36-13.88-2.37-19.14,2.75-1.31,1.27-1.79,.93-2.92-.12C69.44-.27,63.34-1.2,56.83,1.46c-6.58,2.69-8.99,8.17-9.19,15,.11,3.63,1.11,7.08,2.81,10.39,5.4,10.51,14.72,16.78,24.39,22.71,1.24,.76,2.26,.27,3.31-.34,6.17-3.6,11.97-7.74,16.91-12.91,4.62-4.84,8.26-10.32,9.42-17.12,1.23-7.21-1.87-14.08-7.74-17.19Zm2.97,16.89c-1.1,5.64-4.28,10.16-8.13,14.21-4.04,4.25-8.76,7.69-13.75,10.75-.8,.49-1.49,1.1-2.65,.36-8.15-5.18-15.96-10.67-20.54-19.6-1.33-2.59-2.15-5.29-2.22-7.44-.02-6.26,2.44-10.07,7.01-11.65,4.93-1.71,10.35-.04,13.51,4.15,3.09,4.1,3.51,4.11,6.46,.15,3.56-4.78,9.16-6.29,14.47-3.9,4.64,2.09,6.97,7.2,5.84,12.98Z"/></g></svg>