<?xml version="1.0" encoding="UTF-8"?><svg id="_레이어_2" xmlns="http://www.w3.org/2000/svg" viewBox="0 0 151.32 151.27"><defs><style>.cls-1{fill:#333;}.cls-2{fill:#606060;}.cls-3{fill:#f7f9fa;}.cls-4{fill:#568a35;}</style></defs><g id="_레이어_1-2"><path class="cls-3" d="M100.52,25.4c.06-10.79-6.74-20.5-16.83-24.02-9.92-3.46-20.76-.29-27.32,8-6.82,8.62-7.79,20.41-1.54,29.15,5.5,7.68,8.47,15.69,8.05,25.25-.31,7.05,5.44,12.38,12.25,12.58,7.93,.23,13.67-5.41,13.39-13.87-.29-8.57,2.02-16.05,7.28-22.78,3.25-4.16,4.66-9.04,4.72-14.31Zm-18.62,39.43c-.72,3.04-3.04,4.97-6.05,5.04-3.08,.07-5.45-1.69-6.31-4.69-1.3-4.52-.57-5.52,4.02-5.52h4.41c4.34,0,4.96,.81,3.93,5.16Zm9.13-29.79c-3.59,5.24-6.83,10.55-8.22,16.8-.26,1.16-.9,1.35-1.87,1.33-1.77-.03-3.54,0-5.31,0v-.16c-2.16,0-4.66,.68-6.36-.2-1.64-.84-1.33-3.67-2.07-5.57-1.68-4.35-4.27-8.14-6.82-12-4.1-6.22-4.24-12.82-.58-19.24,3.58-6.28,9.15-9.73,16.5-9.44,7.04,.28,12.36,3.77,15.59,10.01,3.23,6.23,3.15,12.64-.85,18.47Z"/><path class="cls-2" d="M151.3,116.74c0-1.65-.76-3.24-2.37-3.23-3.04,.04-2.9-1.75-2.79-3.78,.06-1.08,.01-2.17,.01-3.25,0-7.31-4.59-12.37-11.91-12.43-12.32-.11-24.2-2.39-35.88-6.19-8.19-2.67-15.35-.5-21.09,5.9-1.26,1.4-1.72,1.7-3.14,.07-5.58-6.38-12.72-8.68-20.77-6.08-11.89,3.84-23.93,6.19-36.45,6.31-6.52,.06-11.39,5.24-11.68,11.75-.08,1.87-.06,3.74-.03,5.61,.02,1.12-.12,1.89-1.55,1.88-2.83-.02-3.66,1.7-3.63,4.25,.06,5.41,.01,10.83,.02,16.25,0,4.38,.74,5.11,5.15,5.11,17.72,0,35.45,.02,53.18-.03,1.8,0,2.67,.34,3.29,2.31,1.91,6.06,7.61,10.01,13.85,10.07,6.39,.06,12.24-3.86,14.19-10.01,.67-2.13,1.68-2.38,3.54-2.37,8.86,.07,17.72,.03,26.59,.03s18.32-.02,27.47,.01c2.48,0,4-.99,4.02-3.59,.04-6.2,.02-12.41,0-18.61Zm-72.08-12.74c1.21-7.46,9.04-12.35,16.49-10.12,7.82,2.33,15.61,4.68,23.74,5.67,4.5,.55,9,.93,13.54,.95,4.96,.02,6.65,1.79,6.65,6.73q0,6.05-6.18,6.05c-12.8,0-25.6,.07-38.4-.03-5.52-.04-10.77,.79-16.15,3.83,.08-4.69-.36-8.91,.31-13.09Zm-57.66-3.65c11.08-.01,21.86-2.4,32.33-6.02,3.49-1.2,6.91-1.47,10.34,.04,4.59,2.01,7.51,5.48,7.94,10.5,.34,3.88,.07,7.81,.07,12.13-5.29-3.03-10.66-3.78-16.27-3.74-13.88,.1-27.77,0-41.65,.07-1.96,.01-2.67-.38-2.71-2.54-.15-7.51,.16-10.43,9.95-10.44Zm122.64,31.58c-1.76,1.64-6.15,.48-9.38,.49-6,.03-12.01,0-18.01,0-8.27,0-16.54,0-24.81,0-4.83,0-6.72,1.41-8.14,5.97-1.22,3.93-4.41,6.39-8.25,6.36-3.83-.02-6.95-2.49-8.16-6.47-1.32-4.36-3.33-5.86-7.94-5.86-16.73-.01-33.47-.06-50.2,.06-2.36,.01-3.05-.64-2.82-2.91,.32-3.2-1.33-7.51,.64-9.33,1.71-1.58,5.97-.46,9.11-.46,13.59-.01,27.17,.07,40.75-.04,6.09-.05,11.45,1.59,15.89,5.81,1.96,1.86,3.74,1.73,5.66-.07,4.3-4.03,9.45-5.75,15.33-5.73,16.14,.07,32.29,.07,48.43-.03,2.09-.01,2.74,.54,2.54,2.59-.31,3.3,1.38,7.73-.64,9.61Z"/><path class="cls-1" d="M151.3,116.74c0-1.65-.76-3.24-2.37-3.23-3.04,.04-2.9-1.75-2.79-3.78,.06-1.08,.01-2.17,.01-3.25,0-7.31-4.59-12.37-11.91-12.43-12.32-.11-24.2-2.39-35.88-6.19-8.19-2.67-15.35-.5-21.09,5.9-1.26,1.4-1.72,1.7-3.14,.07-5.58-6.38-12.72-8.68-20.77-6.08-11.89,3.84-23.93,6.19-36.45,6.31-6.52,.06-11.39,5.24-11.68,11.75-.08,1.87-.06,3.74-.03,5.61,.02,1.12-.12,1.89-1.55,1.88-2.83-.02-3.66,1.7-3.63,4.25,.06,5.41,.01,10.83,.02,16.25,0,4.38,.74,5.11,5.15,5.11,17.72,0,35.45,.02,53.18-.03,1.8,0,2.67,.34,3.29,2.31,1.91,6.06,7.61,10.01,13.85,10.07,6.39,.06,12.24-3.86,14.19-10.01,.67-2.13,1.68-2.38,3.54-2.37,8.86,.07,17.72,.03,26.59,.03s18.32-.02,27.47,.01c2.48,0,4-.99,4.02-3.59,.04-6.2,.02-12.41,0-18.61Zm-72.08-12.74c1.21-7.46,9.04-12.35,16.49-10.12,7.82,2.33,15.61,4.68,23.74,5.67,4.5,.55,9,.93,13.54,.95,4.96,.02,6.65,1.79,6.65,6.73q0,6.05-6.18,6.05c-12.8,0-25.6,.07-38.4-.03-5.52-.04-10.77,.79-16.15,3.83,.08-4.69-.36-8.91,.31-13.09Zm-57.66-3.65c11.08-.01,21.86-2.4,32.33-6.02,3.49-1.2,6.91-1.47,10.34,.04,4.59,2.01,7.51,5.48,7.94,10.5,.34,3.88,.07,7.81,.07,12.13-5.29-3.03-10.66-3.78-16.27-3.74-13.88,.1-27.77,0-41.65,.07-1.96,.01-2.67-.38-2.71-2.54-.15-7.51,.16-10.43,9.95-10.44Zm122.64,31.58c-1.76,1.64-6.15,.48-9.38,.49-6,.03-12.01,0-18.01,0-8.27,0-16.54,0-24.81,0-4.83,0-6.72,1.41-8.14,5.97-1.22,3.93-4.41,6.39-8.25,6.36-3.83-.02-6.95-2.49-8.16-6.47-1.32-4.36-3.33-5.86-7.94-5.86-16.73-.01-33.47-.06-50.2,.06-2.36,.01-3.05-.64-2.82-2.91,.32-3.2-1.33-7.51,.64-9.33,1.71-1.58,5.97-.46,9.11-.46,13.59-.01,27.17,.07,40.75-.04,6.09-.05,11.45,1.59,15.89,5.81,1.96,1.86,3.74,1.73,5.66-.07,4.3-4.03,9.45-5.75,15.33-5.73,16.14,.07,32.29,.07,48.43-.03,2.09-.01,2.74,.54,2.54,2.59-.31,3.3,1.38,7.73-.64,9.61Z"/><path class="cls-4" d="M100.52,25.4c.06-10.79-6.74-20.5-16.83-24.02-9.92-3.46-20.76-.29-27.32,8-6.82,8.62-7.79,20.41-1.54,29.15,5.5,7.68,8.47,15.69,8.05,25.25-.31,7.05,5.44,12.38,12.25,12.58,7.93,.23,13.67-5.41,13.39-13.87-.29-8.57,2.02-16.05,7.28-22.78,3.25-4.16,4.66-9.04,4.72-14.31Zm-18.62,39.43c-.72,3.04-3.04,4.97-6.05,5.04-3.08,.07-5.45-1.69-6.31-4.69-1.3-4.52-.57-5.52,4.02-5.52h4.41c4.34,0,4.96,.81,3.93,5.16Zm9.13-29.79c-3.59,5.24-6.83,10.55-8.22,16.8-.26,1.16-.9,1.35-1.87,1.33-1.77-.03-3.54,0-5.31,0v-.16c-2.16,0-4.66,.68-6.36-.2-1.64-.84-1.33-3.67-2.07-5.57-1.68-4.35-4.27-8.14-6.82-12-4.1-6.22-4.24-12.82-.58-19.24,3.58-6.28,9.15-9.73,16.5-9.44,7.04,.28,12.36,3.77,15.59,10.01,3.23,6.23,3.15,12.64-.85,18.47Z"/></g></svg>