<?xml version="1.0" encoding="UTF-8"?><svg id="_레이어_2" xmlns="http://www.w3.org/2000/svg" viewBox="0 0 130.68 130.67"><defs><style>.cls-1{fill:#333;}.cls-2{fill:#568a35;}</style></defs><g id="_레이어_1-2"><path class="cls-1" d="M61.27,45.28c-.08,8.96-6.9,15.82-15.84,15.99-4.95,.09-9.9,.02-14.85,.02s-9.71,.07-14.56-.01C7.09,61.12,.17,54.27,.08,45.36-.02,35.56-.03,25.75,.08,15.95,.19,7.07,7.17,.16,16.09,.07,25.79-.02,35.5-.01,45.21,.07c9.09,.08,15.99,6.99,16.06,16.08,.08,9.71,.09,19.42,0,29.13Z"/><path class="cls-2" d="M130.61,45.21c-.08,9.09-6.98,15.97-16.09,16.06-9.71,.09-19.42,.1-29.12,0-9.11-.1-15.88-6.99-15.99-16.13-.06-4.85-.01-9.71-.01-14.56,0-4.86-.06-9.71,.02-14.56,.14-8.91,7.01-15.84,15.92-15.94,9.8-.11,19.61-.11,29.41,0,8.88,.1,15.78,7.08,15.87,16.01,.1,9.71,.09,19.42,0,29.12Z"/><path class="cls-1" d="M61.28,114.54c-.13,9.08-7,15.98-16.1,16.06-9.71,.08-19.42,.09-29.13,0-8.9-.09-15.88-7.03-15.98-15.91C-.02,104.9-.02,95.08,.08,85.29c.1-8.9,7.03-15.78,15.97-15.88,9.71-.1,19.42-.1,29.12,0,9.27,.09,16.02,6.96,16.12,16.31,.05,4.85,0,9.71,0,14.56s.06,9.51-.01,14.27Z"/><path class="cls-1" d="M130.61,114.54c-.08,9.05-7.05,15.99-16.12,16.07-9.71,.08-19.42,.09-29.12,0-8.92-.09-15.82-7.01-15.96-15.9-.08-4.95-.01-9.9-.01-14.85s-.06-9.71,.01-14.56c.15-8.92,6.98-15.78,15.94-15.88,9.8-.1,19.62-.11,29.42,0,8.9,.1,15.75,7.05,15.84,16,.09,9.71,.09,19.42,0,29.12Z"/></g></svg>