<?xml version="1.0" encoding="UTF-8"?><svg id="_레이어_2" xmlns="http://www.w3.org/2000/svg" viewBox="0 0 162.09 135.46"><defs><style>.cls-1{fill:#333;}.cls-2{fill:#d1d2d3;}.cls-3{fill:#d3e55b;}.cls-4{fill:#f7f9fa;}.cls-5{fill:#568a35;}</style></defs><g id="_레이어_1-2"><path class="cls-1" d="M122.52,17.42c-14.16-.05-25.78,11.37-25.9,25.48-.11,14.28,11.4,25.96,25.62,26,14.32,.04,25.86-11.44,25.87-25.73,.01-14.21-11.41-25.7-25.59-25.75Zm13.01,41.62c-8.67,7.39-22.28,5.91-29.45-3.26-7.05-9.03-5.17-22.59,4.01-29.18,.85-.61,1.72-.8,2.73-.8,6.37,.03,12.74,0,19.11,.02,2.99,.01,4.82,1.86,4.82,4.78,.01,4.25,.01,8.49,.01,12.74s-.04,8.66,.02,12.99c.02,1.17-.36,1.95-1.25,2.71Zm-13.01-41.62c-14.16-.05-25.78,11.37-25.9,25.48-.11,14.28,11.4,25.96,25.62,26,14.32,.04,25.86-11.44,25.87-25.73,.01-14.21-11.41-25.7-25.59-25.75Zm13.01,41.62c-8.67,7.39-22.28,5.91-29.45-3.26-7.05-9.03-5.17-22.59,4.01-29.18,.85-.61,1.72-.8,2.73-.8,6.37,.03,12.74,0,19.11,.02,2.99,.01,4.82,1.86,4.82,4.78,.01,4.25,.01,8.49,.01,12.74s-.04,8.66,.02,12.99c.02,1.17-.36,1.95-1.25,2.71Zm-13.01-41.62c-14.16-.05-25.78,11.37-25.9,25.48-.11,14.28,11.4,25.96,25.62,26,14.32,.04,25.86-11.44,25.87-25.73,.01-14.21-11.41-25.7-25.59-25.75Zm13.01,41.62c-8.67,7.39-22.28,5.91-29.45-3.26-7.05-9.03-5.17-22.59,4.01-29.18,.85-.61,1.72-.8,2.73-.8,6.37,.03,12.74,0,19.11,.02,2.99,.01,4.82,1.86,4.82,4.78,.01,4.25,.01,8.49,.01,12.74s-.04,8.66,.02,12.99c.02,1.17-.36,1.95-1.25,2.71Zm-13.01-41.62c-14.16-.05-25.78,11.37-25.9,25.48-.11,14.28,11.4,25.96,25.62,26,14.32,.04,25.86-11.44,25.87-25.73,.01-14.21-11.41-25.7-25.59-25.75Zm13.01,41.62c-8.67,7.39-22.28,5.91-29.45-3.26-7.05-9.03-5.17-22.59,4.01-29.18,.85-.61,1.72-.8,2.73-.8,6.37,.03,12.74,0,19.11,.02,2.99,.01,4.82,1.86,4.82,4.78,.01,4.25,.01,8.49,.01,12.74s-.04,8.66,.02,12.99c.02,1.17-.36,1.95-1.25,2.71Zm-13.01-41.62c-14.16-.05-25.78,11.37-25.9,25.48-.11,14.28,11.4,25.96,25.62,26,14.32,.04,25.86-11.44,25.87-25.73,.01-14.21-11.41-25.7-25.59-25.75Zm13.01,41.62c-8.67,7.39-22.28,5.91-29.45-3.26-7.05-9.03-5.17-22.59,4.01-29.18,.85-.61,1.72-.8,2.73-.8,6.37,.03,12.74,0,19.11,.02,2.99,.01,4.82,1.86,4.82,4.78,.01,4.25,.01,8.49,.01,12.74s-.04,8.66,.02,12.99c.02,1.17-.36,1.95-1.25,2.71Zm-13.01-41.62c-14.16-.05-25.78,11.37-25.9,25.48-.11,14.28,11.4,25.96,25.62,26,14.32,.04,25.86-11.44,25.87-25.73,.01-14.21-11.41-25.7-25.59-25.75Zm13.01,41.62c-8.67,7.39-22.28,5.91-29.45-3.26-7.05-9.03-5.17-22.59,4.01-29.18,.85-.61,1.72-.8,2.73-.8,6.37,.03,12.74,0,19.11,.02,2.99,.01,4.82,1.86,4.82,4.78,.01,4.25,.01,8.49,.01,12.74s-.04,8.66,.02,12.99c.02,1.17-.36,1.95-1.25,2.71Zm-13.01-41.62c-14.16-.05-25.78,11.37-25.9,25.48-.11,14.28,11.4,25.96,25.62,26,14.32,.04,25.86-11.44,25.87-25.73,.01-14.21-11.41-25.7-25.59-25.75Zm13.01,41.62c-8.67,7.39-22.28,5.91-29.45-3.26-7.05-9.03-5.17-22.59,4.01-29.18,.85-.61,1.72-.8,2.73-.8,6.37,.03,12.74,0,19.11,.02,2.99,.01,4.82,1.86,4.82,4.78,.01,4.25,.01,8.49,.01,12.74s-.04,8.66,.02,12.99c.02,1.17-.36,1.95-1.25,2.71Zm-13.01-41.62c-14.16-.05-25.78,11.37-25.9,25.48-.11,14.28,11.4,25.96,25.62,26,14.32,.04,25.86-11.44,25.87-25.73,.01-14.21-11.41-25.7-25.59-25.75Zm13.01,41.62c-8.67,7.39-22.28,5.91-29.45-3.26-7.05-9.03-5.17-22.59,4.01-29.18,.85-.61,1.72-.8,2.73-.8,6.37,.03,12.74,0,19.11,.02,2.99,.01,4.82,1.86,4.82,4.78,.01,4.25,.01,8.49,.01,12.74s-.04,8.66,.02,12.99c.02,1.17-.36,1.95-1.25,2.71Zm-13.01-41.62c-14.16-.05-25.78,11.37-25.9,25.48-.11,14.28,11.4,25.96,25.62,26,14.32,.04,25.86-11.44,25.87-25.73,.01-14.21-11.41-25.7-25.59-25.75Zm13.01,41.62c-8.67,7.39-22.28,5.91-29.45-3.26-7.05-9.03-5.17-22.59,4.01-29.18,.85-.61,1.72-.8,2.73-.8,6.37,.03,12.74,0,19.11,.02,2.99,.01,4.82,1.86,4.82,4.78,.01,4.25,.01,8.49,.01,12.74s-.04,8.66,.02,12.99c.02,1.17-.36,1.95-1.25,2.71Zm-13.01-41.62c-14.16-.05-25.78,11.37-25.9,25.48-.11,14.28,11.4,25.96,25.62,26,14.32,.04,25.86-11.44,25.87-25.73,.01-14.21-11.41-25.7-25.59-25.75Zm13.01,41.62c-8.67,7.39-22.28,5.91-29.45-3.26-7.05-9.03-5.17-22.59,4.01-29.18,.85-.61,1.72-.8,2.73-.8,6.37,.03,12.74,0,19.11,.02,2.99,.01,4.82,1.86,4.82,4.78,.01,4.25,.01,8.49,.01,12.74s-.04,8.66,.02,12.99c.02,1.17-.36,1.95-1.25,2.71Zm-13.01-41.62c-14.16-.05-25.78,11.37-25.9,25.48-.11,14.28,11.4,25.96,25.62,26,14.32,.04,25.86-11.44,25.87-25.73,.01-14.21-11.41-25.7-25.59-25.75Zm13.01,41.62c-8.67,7.39-22.28,5.91-29.45-3.26-7.05-9.03-5.17-22.59,4.01-29.18,.85-.61,1.72-.8,2.73-.8,6.37,.03,12.74,0,19.11,.02,2.99,.01,4.82,1.86,4.82,4.78,.01,4.25,.01,8.49,.01,12.74s-.04,8.66,.02,12.99c.02,1.17-.36,1.95-1.25,2.71Zm-13.01-41.62c-14.16-.05-25.78,11.37-25.9,25.48-.11,14.28,11.4,25.96,25.62,26,14.32,.04,25.86-11.44,25.87-25.73,.01-14.21-11.41-25.7-25.59-25.75Zm13.01,41.62c-8.67,7.39-22.28,5.91-29.45-3.26-7.05-9.03-5.17-22.59,4.01-29.18,.85-.61,1.72-.8,2.73-.8,6.37,.03,12.74,0,19.11,.02,2.99,.01,4.82,1.86,4.82,4.78,.01,4.25,.01,8.49,.01,12.74s-.04,8.66,.02,12.99c.02,1.17-.36,1.95-1.25,2.71Zm-13.01-41.62c-14.16-.05-25.78,11.37-25.9,25.48-.11,14.28,11.4,25.96,25.62,26,14.32,.04,25.86-11.44,25.87-25.73,.01-14.21-11.41-25.7-25.59-25.75Zm13.01,41.62c-8.67,7.39-22.28,5.91-29.45-3.26-7.05-9.03-5.17-22.59,4.01-29.18,.85-.61,1.72-.8,2.73-.8,6.37,.03,12.74,0,19.11,.02,2.99,.01,4.82,1.86,4.82,4.78,.01,4.25,.01,8.49,.01,12.74s-.04,8.66,.02,12.99c.02,1.17-.36,1.95-1.25,2.71Zm-13.01-41.62c-14.16-.05-25.78,11.37-25.9,25.48-.11,14.28,11.4,25.96,25.62,26,14.32,.04,25.86-11.44,25.87-25.73,.01-14.21-11.41-25.7-25.59-25.75Zm13.01,41.62c-8.67,7.39-22.28,5.91-29.45-3.26-7.05-9.03-5.17-22.59,4.01-29.18,.85-.61,1.72-.8,2.73-.8,6.37,.03,12.74,0,19.11,.02,2.99,.01,4.82,1.86,4.82,4.78,.01,4.25,.01,8.49,.01,12.74s-.04,8.66,.02,12.99c.02,1.17-.36,1.95-1.25,2.71Zm-13.01-41.62c-14.16-.05-25.78,11.37-25.9,25.48-.11,14.28,11.4,25.96,25.62,26,14.32,.04,25.86-11.44,25.87-25.73,.01-14.21-11.41-25.7-25.59-25.75Zm13.01,41.62c-8.67,7.39-22.28,5.91-29.45-3.26-7.05-9.03-5.17-22.59,4.01-29.18,.85-.61,1.72-.8,2.73-.8,6.37,.03,12.74,0,19.11,.02,2.99,.01,4.82,1.86,4.82,4.78,.01,4.25,.01,8.49,.01,12.74s-.04,8.66,.02,12.99c.02,1.17-.36,1.95-1.25,2.71Zm-13.01-41.62c-14.16-.05-25.78,11.37-25.9,25.48-.11,14.28,11.4,25.96,25.62,26,14.32,.04,25.86-11.44,25.87-25.73,.01-14.21-11.41-25.7-25.59-25.75Zm13.01,41.62c-8.67,7.39-22.28,5.91-29.45-3.26-7.05-9.03-5.17-22.59,4.01-29.18,.85-.61,1.72-.8,2.73-.8,6.37,.03,12.74,0,19.11,.02,2.99,.01,4.82,1.86,4.82,4.78,.01,4.25,.01,8.49,.01,12.74s-.04,8.66,.02,12.99c.02,1.17-.36,1.95-1.25,2.71Zm-13.01-41.62c-14.16-.05-25.78,11.37-25.9,25.48-.11,14.28,11.4,25.96,25.62,26,14.32,.04,25.86-11.44,25.87-25.73,.01-14.21-11.41-25.7-25.59-25.75Zm13.01,41.62c-8.67,7.39-22.28,5.91-29.45-3.26-7.05-9.03-5.17-22.59,4.01-29.18,.85-.61,1.72-.8,2.73-.8,6.37,.03,12.74,0,19.11,.02,2.99,.01,4.82,1.86,4.82,4.78,.01,4.25,.01,8.49,.01,12.74s-.04,8.66,.02,12.99c.02,1.17-.36,1.95-1.25,2.71Zm-13.01-41.62c-14.16-.05-25.78,11.37-25.9,25.48-.11,14.28,11.4,25.96,25.62,26,14.32,.04,25.86-11.44,25.87-25.73,.01-14.21-11.41-25.7-25.59-25.75Zm13.01,41.62c-8.67,7.39-22.28,5.91-29.45-3.26-7.05-9.03-5.17-22.59,4.01-29.18,.85-.61,1.72-.8,2.73-.8,6.37,.03,12.74,0,19.11,.02,2.99,.01,4.82,1.86,4.82,4.78,.01,4.25,.01,8.49,.01,12.74s-.04,8.66,.02,12.99c.02,1.17-.36,1.95-1.25,2.71Zm-13.01-41.62c-14.16-.05-25.78,11.37-25.9,25.48-.11,14.28,11.4,25.96,25.62,26,14.32,.04,25.86-11.44,25.87-25.73,.01-14.21-11.41-25.7-25.59-25.75Zm13.01,41.62c-8.67,7.39-22.28,5.91-29.45-3.26-7.05-9.03-5.17-22.59,4.01-29.18,.85-.61,1.72-.8,2.73-.8,6.37,.03,12.74,0,19.11,.02,2.99,.01,4.82,1.86,4.82,4.78,.01,4.25,.01,8.49,.01,12.74s-.04,8.66,.02,12.99c.02,1.17-.36,1.95-1.25,2.71Zm-13.01-41.62c-14.16-.05-25.78,11.37-25.9,25.48-.11,14.28,11.4,25.96,25.62,26,14.32,.04,25.86-11.44,25.87-25.73,.01-14.21-11.41-25.7-25.59-25.75Zm13.01,41.62c-8.67,7.39-22.28,5.91-29.45-3.26-7.05-9.03-5.17-22.59,4.01-29.18,.85-.61,1.72-.8,2.73-.8,6.37,.03,12.74,0,19.11,.02,2.99,.01,4.82,1.86,4.82,4.78,.01,4.25,.01,8.49,.01,12.74s-.04,8.66,.02,12.99c.02,1.17-.36,1.95-1.25,2.71Zm-13.01-41.62c-14.16-.05-25.78,11.37-25.9,25.48-.11,14.28,11.4,25.96,25.62,26,14.32,.04,25.86-11.44,25.87-25.73,.01-14.21-11.41-25.7-25.59-25.75Zm13.01,41.62c-8.67,7.39-22.28,5.91-29.45-3.26-7.05-9.03-5.17-22.59,4.01-29.18,.85-.61,1.72-.8,2.73-.8,6.37,.03,12.74,0,19.11,.02,2.99,.01,4.82,1.86,4.82,4.78,.01,4.25,.01,8.49,.01,12.74s-.04,8.66,.02,12.99c.02,1.17-.36,1.95-1.25,2.71Zm-13.01-41.62c-14.16-.05-25.78,11.37-25.9,25.48-.11,14.28,11.4,25.96,25.62,26,14.32,.04,25.86-11.44,25.87-25.73,.01-14.21-11.41-25.7-25.59-25.75Zm13.01,41.62c-8.67,7.39-22.28,5.91-29.45-3.26-7.05-9.03-5.17-22.59,4.01-29.18,.85-.61,1.72-.8,2.73-.8,6.37,.03,12.74,0,19.11,.02,2.99,.01,4.82,1.86,4.82,4.78,.01,4.25,.01,8.49,.01,12.74s-.04,8.66,.02,12.99c.02,1.17-.36,1.95-1.25,2.71Zm-.62,21.72c21.17-6.72,32.78-31.26,24.48-51.86C149.9,5.33,122.63-3.64,101.1,9.81c-1.52,.95-2.05,1.01-2.92-.75-2.58-5.2-6.92-8.43-12.71-8.69-10.68-.49-21.39-.51-32.07,.01-5.89,.29-10.19,3.62-12.81,8.94-1.5,3.07-2.96,6.18-4.24,9.35-.58,1.44-1.31,1.91-2.85,1.9-9.95-.07-19.92-.04-29.88-.02C1.01,20.55,.02,21.49,.02,24.05,0,37.36-.02,50.66,.03,63.97c.02,3.67,1.31,6.92,4.25,9.24,1.18,.92,1.53,1.86,1.52,3.29-.05,9.71-.04,19.43-.02,29.14,.01,7.96,4.87,12.85,12.78,12.85,14.53,.02,29.06,.01,43.6,.01s29.72,.04,44.58-.05c1.87-.01,2.41,.5,2.28,2.32-.19,2.72,.28,5.37,1.64,7.79,3.07,5.46,9.03,7.98,15.26,6.46,5.5-1.34,9.71-6.61,9.78-12.6,.1-9.63,.04-19.27,.03-28.9,0-2.25,.52-4.84-2.98-5.04-.13,0-.35-.16-.35-.25-.06-2.03-.26-4.08-.07-6.09,.13-1.31,1.66-1.08,2.58-1.38ZM45.57,10.9c1.94-3.53,5.12-5.5,9.19-5.53,9.8-.08,19.59-.11,29.39,.01,5.52,.06,8.79,3.6,10.63,8.34,.28,.71-.04,1.05-.43,1.48-1.36,1.5-2.7,3.01-4.14,4.61-.78-1.69-1.55-3.3-2.27-4.94-.8-1.83-2.18-2.84-4.17-2.84-9.55-.02-19.1-.02-28.65,0-2,.01-3.29,1.08-4.16,2.88q-2.84,5.95-9.8,5.5c1.53-3.34,2.77-6.54,4.41-9.51ZM5.28,62.94c-.01-11.67,.01-23.34-.02-35.02-.01-1.37,.02-2.16,1.86-2.15,26.05,.07,52.08,.04,78.13,.05,.39,0,.78,.05,1.14,.08-7.96,21.31-2.7,38.47,15.99,51.84-3.27,.84-6.43,1.68-9.6,2.47-3.79,.95-7.61,1.8-11.39,2.81-1.52,.4-2.3,.34-2.1-1.55,.13-1.2,.09-2.45-.08-3.66-.36-2.58-2.53-4.43-5.3-4.51-2.85-.07-5.71-.06-8.57-.01-3.51,.08-5.58,2.17-5.68,5.67-.15,4.74-.13,4.67-4.79,3.44-14.5-3.83-29.01-7.58-43.49-11.42-4.8-1.27-6.1-3.08-6.1-8.04Zm69.03,30.54c.01,1.26-.38,1.75-1.67,1.71-2.11-.08-4.23-.08-6.35,0-1.28,.04-1.71-.41-1.66-1.69,.09-2.27,.02-4.55,.02-6.83s.06-4.4-.02-6.6c-.04-1.23,.32-1.76,1.64-1.71,2.12,.09,4.24,.08,6.35,0,1.29-.05,1.7,.43,1.69,1.7-.06,4.47-.06,8.95,0,13.42Zm36.5-4.73c-1.64,.19-1.83,1.81-1.83,3.28,.02,6.37-.05,12.74,.05,19.1,.03,1.73-.49,2.18-2.19,2.17-14.86-.06-29.71-.04-44.57-.04s-28.89,.01-43.34,0c-5.71,0-7.94-2.18-7.95-7.79-.02-9.06,0-18.12,.01-27.18,0-.94-.5-2.25,1.52-1.71,15.03,4.03,30.07,8,45.13,11.88,1.75,.45,2.17,1.23,2.03,2.85-.67,8.35,2.63,9.35,8.98,9.04,1.63-.08,3.27,.04,4.9-.03,3.65-.15,5.65-2.26,5.77-5.9,.07-1.86-.78-4.26,.35-5.45,1.09-1.14,3.46-1.08,5.27-1.53,8.22-2.05,16.43-4.1,24.66-6.12,2.34-.57,2.93-.07,2.95,2.3,.01,.9-.04,1.8,.02,2.7,.08,1.31,.05,2.22-1.76,2.43Zm19.78,33.44c-.06,4.74-3.71,8.17-8.29,8.14-4.55-.02-8.06-3.55-8.14-8.31-.06-4.4-.01-8.8-.01-13.21s.04-8.81-.03-13.21c-.03-1.42,.28-2.03,1.86-1.99,4.32,.1,8.65,.07,12.97,.01,1.25-.02,1.71,.34,1.7,1.65-.05,8.97,.05,17.94-.06,26.92Zm-8.26-39.46c.33,0,.65,.01,.97,0,4.05-.05,4.64,.72,3.94,4.79-.19,1.08-.8,1.02-1.54,1.02-2.19,0-4.38-.04-6.57,.02-1.09,.03-1.54-.23-1.6-1.46-.22-4.35-.28-4.35,4.8-4.37Zm.01-5.12c-19.01-.01-34.38-15.37-34.41-34.37-.03-19.11,15.39-34.56,34.5-34.56,19.05,.01,34.46,15.52,34.41,34.65-.06,18.98-15.47,34.3-34.5,34.28Zm.18-60.19c-14.16-.05-25.78,11.37-25.9,25.48-.11,14.28,11.4,25.96,25.62,26,14.32,.04,25.86-11.44,25.87-25.73,.01-14.21-11.41-25.7-25.59-25.75Zm13.01,41.62c-8.67,7.39-22.28,5.91-29.45-3.26-7.05-9.03-5.17-22.59,4.01-29.18,.85-.61,1.72-.8,2.73-.8,6.37,.03,12.74,0,19.11,.02,2.99,.01,4.82,1.86,4.82,4.78,.01,4.25,.01,8.49,.01,12.74s-.04,8.66,.02,12.99c.02,1.17-.36,1.95-1.25,2.71Zm-13.01-41.62c-14.16-.05-25.78,11.37-25.9,25.48-.11,14.28,11.4,25.96,25.62,26,14.32,.04,25.86-11.44,25.87-25.73,.01-14.21-11.41-25.7-25.59-25.75Zm13.01,41.62c-8.67,7.39-22.28,5.91-29.45-3.26-7.05-9.03-5.17-22.59,4.01-29.18,.85-.61,1.72-.8,2.73-.8,6.37,.03,12.74,0,19.11,.02,2.99,.01,4.82,1.86,4.82,4.78,.01,4.25,.01,8.49,.01,12.74s-.04,8.66,.02,12.99c.02,1.17-.36,1.95-1.25,2.71Zm-13.01-41.62c-14.16-.05-25.78,11.37-25.9,25.48-.11,14.28,11.4,25.96,25.62,26,14.32,.04,25.86-11.44,25.87-25.73,.01-14.21-11.41-25.7-25.59-25.75Zm13.01,41.62c-8.67,7.39-22.28,5.91-29.45-3.26-7.05-9.03-5.17-22.59,4.01-29.18,.85-.61,1.72-.8,2.73-.8,6.37,.03,12.74,0,19.11,.02,2.99,.01,4.82,1.86,4.82,4.78,.01,4.25,.01,8.49,.01,12.74s-.04,8.66,.02,12.99c.02,1.17-.36,1.95-1.25,2.71Zm-13.01-41.62c-14.16-.05-25.78,11.37-25.9,25.48-.11,14.28,11.4,25.96,25.62,26,14.32,.04,25.86-11.44,25.87-25.73,.01-14.21-11.41-25.7-25.59-25.75Zm13.01,41.62c-8.67,7.39-22.28,5.91-29.45-3.26-7.05-9.03-5.17-22.59,4.01-29.18,.85-.61,1.72-.8,2.73-.8,6.37,.03,12.74,0,19.11,.02,2.99,.01,4.82,1.86,4.82,4.78,.01,4.25,.01,8.49,.01,12.74s-.04,8.66,.02,12.99c.02,1.17-.36,1.95-1.25,2.71Zm-13.01-41.62c-14.16-.05-25.78,11.37-25.9,25.48-.11,14.28,11.4,25.96,25.62,26,14.32,.04,25.86-11.44,25.87-25.73,.01-14.21-11.41-25.7-25.59-25.75Zm13.01,41.62c-8.67,7.39-22.28,5.91-29.45-3.26-7.05-9.03-5.17-22.59,4.01-29.18,.85-.61,1.72-.8,2.73-.8,6.37,.03,12.74,0,19.11,.02,2.99,.01,4.82,1.86,4.82,4.78,.01,4.25,.01,8.49,.01,12.74s-.04,8.66,.02,12.99c.02,1.17-.36,1.95-1.25,2.71Zm-13.01-41.62c-14.16-.05-25.78,11.37-25.9,25.48-.11,14.28,11.4,25.96,25.62,26,14.32,.04,25.86-11.44,25.87-25.73,.01-14.21-11.41-25.7-25.59-25.75Zm13.01,41.62c-8.67,7.39-22.28,5.91-29.45-3.26-7.05-9.03-5.17-22.59,4.01-29.18,.85-.61,1.72-.8,2.73-.8,6.37,.03,12.74,0,19.11,.02,2.99,.01,4.82,1.86,4.82,4.78,.01,4.25,.01,8.49,.01,12.74s-.04,8.66,.02,12.99c.02,1.17-.36,1.95-1.25,2.71Zm-13.01-41.62c-14.16-.05-25.78,11.37-25.9,25.48-.11,14.28,11.4,25.96,25.62,26,14.32,.04,25.86-11.44,25.87-25.73,.01-14.21-11.41-25.7-25.59-25.75Zm13.01,41.62c-8.67,7.39-22.28,5.91-29.45-3.26-7.05-9.03-5.17-22.59,4.01-29.18,.85-.61,1.72-.8,2.73-.8,6.37,.03,12.74,0,19.11,.02,2.99,.01,4.82,1.86,4.82,4.78,.01,4.25,.01,8.49,.01,12.74s-.04,8.66,.02,12.99c.02,1.17-.36,1.95-1.25,2.71Zm-13.01-41.62c-14.16-.05-25.78,11.37-25.9,25.48-.11,14.28,11.4,25.96,25.62,26,14.32,.04,25.86-11.44,25.87-25.73,.01-14.21-11.41-25.7-25.59-25.75Zm13.01,41.62c-8.67,7.39-22.28,5.91-29.45-3.26-7.05-9.03-5.17-22.59,4.01-29.18,.85-.61,1.72-.8,2.73-.8,6.37,.03,12.74,0,19.11,.02,2.99,.01,4.82,1.86,4.82,4.78,.01,4.25,.01,8.49,.01,12.74s-.04,8.66,.02,12.99c.02,1.17-.36,1.95-1.25,2.71Zm-13.01-41.62c-14.16-.05-25.78,11.37-25.9,25.48-.11,14.28,11.4,25.96,25.62,26,14.32,.04,25.86-11.44,25.87-25.73,.01-14.21-11.41-25.7-25.59-25.75Zm13.01,41.62c-8.67,7.39-22.28,5.91-29.45-3.26-7.05-9.03-5.17-22.59,4.01-29.18,.85-.61,1.72-.8,2.73-.8,6.37,.03,12.74,0,19.11,.02,2.99,.01,4.82,1.86,4.82,4.78,.01,4.25,.01,8.49,.01,12.74s-.04,8.66,.02,12.99c.02,1.17-.36,1.95-1.25,2.71Zm-13.01-41.62c-14.16-.05-25.78,11.37-25.9,25.48-.11,14.28,11.4,25.96,25.62,26,14.32,.04,25.86-11.44,25.87-25.73,.01-14.21-11.41-25.7-25.59-25.75Zm13.01,41.62c-8.67,7.39-22.28,5.91-29.45-3.26-7.05-9.03-5.17-22.59,4.01-29.18,.85-.61,1.72-.8,2.73-.8,6.37,.03,12.74,0,19.11,.02,2.99,.01,4.82,1.86,4.82,4.78,.01,4.25,.01,8.49,.01,12.74s-.04,8.66,.02,12.99c.02,1.17-.36,1.95-1.25,2.71Zm-13.01-41.62c-14.16-.05-25.78,11.37-25.9,25.48-.11,14.28,11.4,25.96,25.62,26,14.32,.04,25.86-11.44,25.87-25.73,.01-14.21-11.41-25.7-25.59-25.75Zm13.01,41.62c-8.67,7.39-22.28,5.91-29.45-3.26-7.05-9.03-5.17-22.59,4.01-29.18,.85-.61,1.72-.8,2.73-.8,6.37,.03,12.74,0,19.11,.02,2.99,.01,4.82,1.86,4.82,4.78,.01,4.25,.01,8.49,.01,12.74s-.04,8.66,.02,12.99c.02,1.17-.36,1.95-1.25,2.71Zm-13.01-41.62c-14.16-.05-25.78,11.37-25.9,25.48-.11,14.28,11.4,25.96,25.62,26,14.32,.04,25.86-11.44,25.87-25.73,.01-14.21-11.41-25.7-25.59-25.75Zm13.01,41.62c-8.67,7.39-22.28,5.91-29.45-3.26-7.05-9.03-5.17-22.59,4.01-29.18,.85-.61,1.72-.8,2.73-.8,6.37,.03,12.74,0,19.11,.02,2.99,.01,4.82,1.86,4.82,4.78,.01,4.25,.01,8.49,.01,12.74s-.04,8.66,.02,12.99c.02,1.17-.36,1.95-1.25,2.71Zm-13.01-41.62c-14.16-.05-25.78,11.37-25.9,25.48-.11,14.28,11.4,25.96,25.62,26,14.32,.04,25.86-11.44,25.87-25.73,.01-14.21-11.41-25.7-25.59-25.75Zm13.01,41.62c-8.67,7.39-22.28,5.91-29.45-3.26-7.05-9.03-5.17-22.59,4.01-29.18,.85-.61,1.72-.8,2.73-.8,6.37,.03,12.74,0,19.11,.02,2.99,.01,4.82,1.86,4.82,4.78,.01,4.25,.01,8.49,.01,12.74s-.04,8.66,.02,12.99c.02,1.17-.36,1.95-1.25,2.71Zm-13.01-41.62c-14.16-.05-25.78,11.37-25.9,25.48-.11,14.28,11.4,25.96,25.62,26,14.32,.04,25.86-11.44,25.87-25.73,.01-14.21-11.41-25.7-25.59-25.75Zm13.01,41.62c-8.67,7.39-22.28,5.91-29.45-3.26-7.05-9.03-5.17-22.59,4.01-29.18,.85-.61,1.72-.8,2.73-.8,6.37,.03,12.74,0,19.11,.02,2.99,.01,4.82,1.86,4.82,4.78,.01,4.25,.01,8.49,.01,12.74s-.04,8.66,.02,12.99c.02,1.17-.36,1.95-1.25,2.71Zm-13.01-41.62c-14.16-.05-25.78,11.37-25.9,25.48-.11,14.28,11.4,25.96,25.62,26,14.32,.04,25.86-11.44,25.87-25.73,.01-14.21-11.41-25.7-25.59-25.75Zm13.01,41.62c-8.67,7.39-22.28,5.91-29.45-3.26-7.05-9.03-5.17-22.59,4.01-29.18,.85-.61,1.72-.8,2.73-.8,6.37,.03,12.74,0,19.11,.02,2.99,.01,4.82,1.86,4.82,4.78,.01,4.25,.01,8.49,.01,12.74s-.04,8.66,.02,12.99c.02,1.17-.36,1.95-1.25,2.71Zm-13.01-41.62c-14.16-.05-25.78,11.37-25.9,25.48-.11,14.28,11.4,25.96,25.62,26,14.32,.04,25.86-11.44,25.87-25.73,.01-14.21-11.41-25.7-25.59-25.75Zm13.01,41.62c-8.67,7.39-22.28,5.91-29.45-3.26-7.05-9.03-5.17-22.59,4.01-29.18,.85-.61,1.72-.8,2.73-.8,6.37,.03,12.74,0,19.11,.02,2.99,.01,4.82,1.86,4.82,4.78,.01,4.25,.01,8.49,.01,12.74s-.04,8.66,.02,12.99c.02,1.17-.36,1.95-1.25,2.71Zm-13.01-41.62c-14.16-.05-25.78,11.37-25.9,25.48-.11,14.28,11.4,25.96,25.62,26,14.32,.04,25.86-11.44,25.87-25.73,.01-14.21-11.41-25.7-25.59-25.75Zm13.01,41.62c-8.67,7.39-22.28,5.91-29.45-3.26-7.05-9.03-5.17-22.59,4.01-29.18,.85-.61,1.72-.8,2.73-.8,6.37,.03,12.74,0,19.11,.02,2.99,.01,4.82,1.86,4.82,4.78,.01,4.25,.01,8.49,.01,12.74s-.04,8.66,.02,12.99c.02,1.17-.36,1.95-1.25,2.71Zm-13.01-41.62c-14.16-.05-25.78,11.37-25.9,25.48-.11,14.28,11.4,25.96,25.62,26,14.32,.04,25.86-11.44,25.87-25.73,.01-14.21-11.41-25.7-25.59-25.75Zm13.01,41.62c-8.67,7.39-22.28,5.91-29.45-3.26-7.05-9.03-5.17-22.59,4.01-29.18,.85-.61,1.72-.8,2.73-.8,6.37,.03,12.74,0,19.11,.02,2.99,.01,4.82,1.86,4.82,4.78,.01,4.25,.01,8.49,.01,12.74s-.04,8.66,.02,12.99c.02,1.17-.36,1.95-1.25,2.71Zm-13.01-41.62c-14.16-.05-25.78,11.37-25.9,25.48-.11,14.28,11.4,25.96,25.62,26,14.32,.04,25.86-11.44,25.87-25.73,.01-14.21-11.41-25.7-25.59-25.75Zm13.01,41.62c-8.67,7.39-22.28,5.91-29.45-3.26-7.05-9.03-5.17-22.59,4.01-29.18,.85-.61,1.72-.8,2.73-.8,6.37,.03,12.74,0,19.11,.02,2.99,.01,4.82,1.86,4.82,4.78,.01,4.25,.01,8.49,.01,12.74s-.04,8.66,.02,12.99c.02,1.17-.36,1.95-1.25,2.71Zm-13.01-41.62c-14.16-.05-25.78,11.37-25.9,25.48-.11,14.28,11.4,25.96,25.62,26,14.32,.04,25.86-11.44,25.87-25.73,.01-14.21-11.41-25.7-25.59-25.75Zm13.01,41.62c-8.67,7.39-22.28,5.91-29.45-3.26-7.05-9.03-5.17-22.59,4.01-29.18,.85-.61,1.72-.8,2.73-.8,6.37,.03,12.74,0,19.11,.02,2.99,.01,4.82,1.86,4.82,4.78,.01,4.25,.01,8.49,.01,12.74s-.04,8.66,.02,12.99c.02,1.17-.36,1.95-1.25,2.71Zm-13.01-41.62c-14.16-.05-25.78,11.37-25.9,25.48-.11,14.28,11.4,25.96,25.62,26,14.32,.04,25.86-11.44,25.87-25.73,.01-14.21-11.41-25.7-25.59-25.75Zm13.01,41.62c-8.67,7.39-22.28,5.91-29.45-3.26-7.05-9.03-5.17-22.59,4.01-29.18,.85-.61,1.72-.8,2.73-.8,6.37,.03,12.74,0,19.11,.02,2.99,.01,4.82,1.86,4.82,4.78,.01,4.25,.01,8.49,.01,12.74s-.04,8.66,.02,12.99c.02,1.17-.36,1.95-1.25,2.71Zm-13.01-41.62c-14.16-.05-25.78,11.37-25.9,25.48-.11,14.28,11.4,25.96,25.62,26,14.32,.04,25.86-11.44,25.87-25.73,.01-14.21-11.41-25.7-25.59-25.75Zm13.01,41.62c-8.67,7.39-22.28,5.91-29.45-3.26-7.05-9.03-5.17-22.59,4.01-29.18,.85-.61,1.72-.8,2.73-.8,6.37,.03,12.74,0,19.11,.02,2.99,.01,4.82,1.86,4.82,4.78,.01,4.25,.01,8.49,.01,12.74s-.04,8.66,.02,12.99c.02,1.17-.36,1.95-1.25,2.71Zm-13.01-41.62c-14.16-.05-25.78,11.37-25.9,25.48-.11,14.28,11.4,25.96,25.62,26,14.32,.04,25.86-11.44,25.87-25.73,.01-14.21-11.41-25.7-25.59-25.75Zm13.01,41.62c-8.67,7.39-22.28,5.91-29.45-3.26-7.05-9.03-5.17-22.59,4.01-29.18,.85-.61,1.72-.8,2.73-.8,6.37,.03,12.74,0,19.11,.02,2.99,.01,4.82,1.86,4.82,4.78,.01,4.25,.01,8.49,.01,12.74s-.04,8.66,.02,12.99c.02,1.17-.36,1.95-1.25,2.71Z"/><path class="cls-1" d="M134.91,80.76c21.17-6.72,32.78-31.26,24.48-51.86C149.9,5.33,122.63-3.64,101.1,9.81c-1.52,.95-2.05,1.01-2.92-.75-2.58-5.2-6.92-8.43-12.71-8.69-10.68-.49-21.39-.51-32.07,.01-5.89,.29-10.19,3.62-12.81,8.94-1.5,3.07-2.96,6.18-4.24,9.35-.58,1.44-1.31,1.91-2.85,1.9-9.95-.07-19.92-.04-29.88-.02C1.01,20.55,.02,21.49,.02,24.05,0,37.36-.02,50.66,.03,63.97c.02,3.67,1.31,6.92,4.25,9.24,1.18,.92,1.53,1.86,1.52,3.29-.05,9.71-.04,19.43-.02,29.14,.01,7.96,4.87,12.85,12.78,12.85,14.53,.02,29.06,.01,43.6,.01s29.72,.04,44.58-.05c1.87-.01,2.41,.5,2.28,2.32-.19,2.72,.28,5.37,1.64,7.79,3.07,5.46,9.03,7.98,15.26,6.46,5.5-1.34,9.71-6.61,9.78-12.6,.1-9.63,.04-19.27,.03-28.9,0-2.25,.52-4.84-2.98-5.04-.13,0-.35-.16-.35-.25-.06-2.03-.26-4.08-.07-6.09,.13-1.31,1.66-1.08,2.58-1.38ZM45.57,10.9c1.94-3.53,5.12-5.5,9.19-5.53,9.8-.08,19.59-.11,29.39,.01,5.52,.06,8.79,3.6,10.63,8.34,.28,.71-.04,1.05-.43,1.48-1.36,1.5-2.7,3.01-4.14,4.61-.78-1.69-1.55-3.3-2.27-4.94-.8-1.83-2.18-2.84-4.17-2.84-9.55-.02-19.1-.02-28.65,0-2,.01-3.29,1.08-4.16,2.88q-2.84,5.95-9.8,5.5c1.53-3.34,2.77-6.54,4.41-9.51ZM5.28,62.94c-.01-11.67,.01-23.34-.02-35.02-.01-1.37,.02-2.16,1.86-2.15,26.05,.07,52.08,.04,78.13,.05,.39,0,.78,.05,1.14,.08-7.96,21.31-2.7,38.47,15.99,51.84-3.27,.84-6.43,1.68-9.6,2.47-3.79,.95-7.61,1.8-11.39,2.81-1.52,.4-2.3,.34-2.1-1.55,.13-1.2,.09-2.45-.08-3.66-.36-2.58-2.53-4.43-5.3-4.51-2.85-.07-5.71-.06-8.57-.01-3.51,.08-5.58,2.17-5.68,5.67-.15,4.74-.13,4.67-4.79,3.44-14.5-3.83-29.01-7.58-43.49-11.42-4.8-1.27-6.1-3.08-6.1-8.04Zm69.03,30.54c.01,1.26-.38,1.75-1.67,1.71-2.11-.08-4.23-.08-6.35,0-1.28,.04-1.71-.41-1.66-1.69,.09-2.27,.02-4.55,.02-6.83s.06-4.4-.02-6.6c-.04-1.23,.32-1.76,1.64-1.71,2.12,.09,4.24,.08,6.35,0,1.29-.05,1.7,.43,1.69,1.7-.06,4.47-.06,8.95,0,13.42Zm36.5-4.73c-1.64,.19-1.83,1.81-1.83,3.28,.02,6.37-.05,12.74,.05,19.1,.03,1.73-.49,2.18-2.19,2.17-14.86-.06-29.71-.04-44.57-.04s-28.89,.01-43.34,0c-5.71,0-7.94-2.18-7.95-7.79-.02-9.06,0-18.12,.01-27.18,0-.94-.5-2.25,1.52-1.71,15.03,4.03,30.07,8,45.13,11.88,1.75,.45,2.17,1.23,2.03,2.85-.67,8.35,2.63,9.35,8.98,9.04,1.63-.08,3.27,.04,4.9-.03,3.65-.15,5.65-2.26,5.77-5.9,.07-1.86-.78-4.26,.35-5.45,1.09-1.14,3.46-1.08,5.27-1.53,8.22-2.05,16.43-4.1,24.66-6.12,2.34-.57,2.93-.07,2.95,2.3,.01,.9-.04,1.8,.02,2.7,.08,1.31,.05,2.22-1.76,2.43Zm19.78,33.44c-.06,4.74-3.71,8.17-8.29,8.14-4.55-.02-8.06-3.55-8.14-8.31-.06-4.4-.01-8.8-.01-13.21s.04-8.81-.03-13.21c-.03-1.42,.28-2.03,1.86-1.99,4.32,.1,8.65,.07,12.97,.01,1.25-.02,1.71,.34,1.7,1.65-.05,8.97,.05,17.94-.06,26.92Zm-8.26-39.46c.33,0,.65,.01,.97,0,4.05-.05,4.64,.72,3.94,4.79-.19,1.08-.8,1.02-1.54,1.02-2.19,0-4.38-.04-6.57,.02-1.09,.03-1.54-.23-1.6-1.46-.22-4.35-.28-4.35,4.8-4.37Zm.01-5.12c-19.01-.01-34.38-15.37-34.41-34.37-.03-19.11,15.39-34.56,34.5-34.56,19.05,.01,34.46,15.52,34.41,34.65-.06,18.98-15.47,34.3-34.5,34.28Z"/><path class="cls-5" d="M74.31,93.49c.01,1.26-.37,1.75-1.67,1.7-2.11-.08-4.23-.08-6.34,0-1.28,.05-1.72-.4-1.67-1.68,.09-2.27,.02-4.55,.02-6.83s.05-4.4-.02-6.59c-.04-1.23,.32-1.77,1.64-1.72,2.11,.09,4.24,.08,6.35,0,1.29-.05,1.7,.43,1.68,1.7-.05,4.48-.06,8.95,0,13.43Z"/><path class="cls-3" d="M122.52,17.42c-14.16-.05-25.78,11.37-25.9,25.48-.11,14.28,11.4,25.96,25.62,26,14.32,.04,25.86-11.44,25.87-25.73,.01-14.21-11.41-25.7-25.59-25.75Zm13.01,41.62c-8.67,7.39-22.28,5.91-29.45-3.26-7.05-9.03-5.17-22.59,4.01-29.18,.85-.61,1.72-.8,2.73-.8,6.37,.03,12.74,0,19.11,.02,2.99,.01,4.82,1.86,4.82,4.78,.01,4.25,.01,8.49,.01,12.74s-.04,8.66,.02,12.99c.02,1.17-.36,1.95-1.25,2.71Z"/><path d="M122.52,17.42c-14.16-.05-25.78,11.37-25.9,25.48-.11,14.28,11.4,25.96,25.62,26,14.32,.04,25.86-11.44,25.87-25.73,.01-14.21-11.41-25.7-25.59-25.75Zm13.01,41.62c-8.67,7.39-22.28,5.91-29.45-3.26-7.05-9.03-5.17-22.59,4.01-29.18,.85-.61,1.72-.8,2.73-.8,6.37,.03,12.74,0,19.11,.02,2.99,.01,4.82,1.86,4.82,4.78,.01,4.25,.01,8.49,.01,12.74s-.04,8.66,.02,12.99c.02,1.17-.36,1.95-1.25,2.71Z"/><path class="cls-4" d="M122.52,17.42c-14.16-.05-25.78,11.37-25.9,25.48-.11,14.28,11.4,25.96,25.62,26,14.32,.04,25.86-11.44,25.87-25.73,.01-14.21-11.41-25.7-25.59-25.75Zm13.01,41.62c-8.67,7.39-22.28,5.91-29.45-3.26-7.05-9.03-5.17-22.59,4.01-29.18,.85-.61,1.72-.8,2.73-.8,6.37,.03,12.74,0,19.11,.02,2.99,.01,4.82,1.86,4.82,4.78,.01,4.25,.01,8.49,.01,12.74s-.04,8.66,.02,12.99c.02,1.17-.36,1.95-1.25,2.71Z"/><path class="cls-1" d="M122.52,17.42c-14.16-.05-25.78,11.37-25.9,25.48-.11,14.28,11.4,25.96,25.62,26,14.32,.04,25.86-11.44,25.87-25.73,.01-14.21-11.41-25.7-25.59-25.75Zm13.01,41.62c-8.67,7.39-22.28,5.91-29.45-3.26-7.05-9.03-5.17-22.59,4.01-29.18,.85-.61,1.72-.8,2.73-.8,6.37,.03,12.74,0,19.11,.02,2.99,.01,4.82,1.86,4.82,4.78,.01,4.25,.01,8.49,.01,12.74s-.04,8.66,.02,12.99c.02,1.17-.36,1.95-1.25,2.71Z"/><path class="cls-2" d="M142.06,47.95v-9.69c1.26,3.18,1.23,6.39,0,9.69Z"/></g></svg>